<?xml version="1.0" encoding="UTF-8"?>
<svg version="1.1" xmlns="http://www.w3.org/2000/svg" width="512" height="512">
<path d="M0 0 C3.32784958 1.42768855 5.61648753 3.57973093 8.15625 6.0859375 C9.21773284 7.0974914 10.28158181 8.10656759 11.34765625 9.11328125 C11.8802002 9.61714355 12.41274414 10.12100586 12.96142578 10.64013672 C15.25356381 12.75118514 17.66344147 14.69930914 20.09375 16.6484375 C24.83325822 20.46316363 29.31023997 24.50163182 33.78515625 28.62109375 C36.45000166 31.01301047 39.17956825 33.27848634 41.96875 35.5234375 C46.50361161 39.18100014 50.78661183 43.03210777 55.04833984 46.99755859 C59.15904276 50.79992557 63.45400584 54.32864342 67.81640625 57.83984375 C71.59692286 60.96760929 75.17605875 64.29867633 78.78515625 67.62109375 C81.45000166 70.01301047 84.17956825 72.27848634 86.96875 74.5234375 C91.50361161 78.18100014 95.78661183 82.03210777 100.04833984 85.99755859 C104.15904276 89.79992557 108.45400584 93.32864342 112.81640625 96.83984375 C116.59692286 99.96760929 120.17605875 103.29867633 123.78515625 106.62109375 C126.45000166 109.01301047 129.17956825 111.27848634 131.96875 113.5234375 C136.50361161 117.18100014 140.78661183 121.03210777 145.04833984 124.99755859 C149.15904276 128.79992557 153.45400584 132.32864342 157.81640625 135.83984375 C160.63798495 138.1742434 163.33715712 140.60584348 166.03125 143.0859375 C170.43136717 147.13504817 174.95972564 150.95787547 179.6328125 154.6875 C180.58929688 155.47898437 181.54578125 156.27046875 182.53125 157.0859375 C183.26414749 157.60477509 183.99704498 158.12361267 184.75215149 158.65817261 C191.05369925 163.49241736 191.05369925 163.49241736 192.32440186 167.73257446 C192.56981571 170.79402224 192.54558397 173.73646065 192.41015625 176.8046875 C192.39105446 178.4524115 192.39105446 178.4524115 192.37156677 180.13342285 C192.32144034 183.61990161 192.20858085 187.10105004 192.09375 190.5859375 C192.04857682 192.95825781 192.00751723 195.33066025 191.97070312 197.703125 C191.87181835 203.49919468 191.7214959 209.29218533 191.53125 215.0859375 C190.25957614 214.14336359 188.9894512 213.19869974 187.7199707 212.25317383 C187.01250198 211.72734207 186.30503326 211.20151031 185.5761261 210.65974426 C182.78757336 208.51357846 180.27851884 206.19000249 177.71875 203.7734375 C173.05836517 199.42103045 168.23942902 195.35049616 163.26953125 191.3515625 C159.40112729 188.1508859 155.72069429 184.76003437 152.0390625 181.34765625 C149.6190866 179.16515462 147.07592362 177.1216764 144.53125 175.0859375 C144.20125 228.2159375 143.87125 281.3459375 143.53125 336.0859375 C48.49125 336.0859375 -46.54875 336.0859375 -144.46875 336.0859375 C-144.79875 282.9559375 -145.12875 229.8259375 -145.46875 175.0859375 C-149.09875 178.3859375 -152.72875 181.6859375 -156.46875 185.0859375 C-161.96875 189.5859375 -161.96875 189.5859375 -164.71875 191.8046875 C-167.54974578 194.15312718 -170.26258598 196.59503652 -172.96875 199.0859375 C-179.14887374 204.76880991 -185.47256557 210.42181455 -192.46875 215.0859375 C-192.72343783 208.13076502 -192.89788012 201.17680374 -193.01806641 194.21801758 C-193.06819019 191.85395379 -193.13631169 189.49019748 -193.22314453 187.12719727 C-193.96559839 166.39526513 -193.96559839 166.39526513 -190.38720703 161.63378906 C-187.85861549 159.34585878 -185.45782107 157.70748413 -182.46875 156.0859375 C-181.49164063 155.27382813 -180.51453125 154.46171875 -179.5078125 153.625 C-178.71117187 152.99335938 -177.91453125 152.36171875 -177.09375 151.7109375 C-172.54094493 148.03021903 -168.23457589 144.15945102 -163.9519043 140.17456055 C-159.84114043 136.37208736 -155.54608477 132.84330451 -151.18359375 129.33203125 C-148.36201505 126.9976316 -145.66284288 124.56603152 -142.96875 122.0859375 C-139.41204756 118.81175327 -135.79713189 115.67951317 -132.03125 112.6484375 C-128.03651014 109.42650649 -124.22320651 106.07938255 -120.46875 102.5859375 C-115.85870664 98.29638637 -111.09092044 94.28183078 -106.18359375 90.33203125 C-103.36201505 87.9976316 -100.66284288 85.56603152 -97.96875 83.0859375 C-94.41204756 79.81175327 -90.79713189 76.67951317 -87.03125 73.6484375 C-83.03651014 70.42650649 -79.22320651 67.07938255 -75.46875 63.5859375 C-70.85870664 59.29638637 -66.09092044 55.28183078 -61.18359375 51.33203125 C-58.36201505 48.9976316 -55.66284288 46.56603152 -52.96875 44.0859375 C-49.41204756 40.81175327 -45.79713189 37.67951317 -42.03125 34.6484375 C-38.03651014 31.42650649 -34.22320651 28.07938255 -30.46875 24.5859375 C-25.86889631 20.30586765 -21.12200255 16.29026768 -16.20703125 12.37109375 C-14.22211009 10.71463316 -12.36441532 9.06150358 -10.51171875 7.26953125 C-10.02324463 6.80168213 -9.53477051 6.33383301 -9.03149414 5.85180664 C-7.66818654 4.53294718 -6.32183991 3.1966209 -4.9765625 1.859375 C-2.46875 0.0859375 -2.46875 0.0859375 0 0 Z " fill="#DFC9CC" transform="translate(256.46875,159.9140625)"/>
<path d="M0 0 C0 33.99 0 67.98 0 103 C-21.12 103 -42.24 103 -64 103 C-64 145.24 -64 187.48 -64 231 C-42.88 231 -21.76 231 0 231 C0 249.48 0 267.96 0 287 C-47.52 287 -95.04 287 -144 287 C-144.44333338 246.23571995 -144.44333338 246.23571995 -144.53710938 229.14257812 C-144.60236064 217.34362144 -144.67903156 205.54552933 -144.82983398 193.74731445 C-144.93961602 185.15426999 -145.0104731 176.56192736 -145.03497344 167.9682011 C-145.04929205 163.41915063 -145.08283488 158.87210754 -145.16303062 154.32370186 C-145.23798461 150.03765978 -145.26067417 145.75444111 -145.24418449 141.46780586 C-145.24719843 139.8991864 -145.26892085 138.3304677 -145.31126022 136.76241684 C-145.61499221 124.92809998 -145.61499221 124.92809998 -141.57593727 120.10597038 C-138.81561695 117.83210503 -136.02571709 115.89882171 -133 114 C-131.94223097 113.11406602 -130.90382335 112.20320604 -129.90625 111.25 C-125.57209154 107.19728041 -121.18557149 103.28350876 -116.5625 99.5625 C-112.56776014 96.34056899 -108.75445651 92.99344505 -105 89.5 C-100.38995664 85.21044887 -95.62217044 81.19589328 -90.71484375 77.24609375 C-87.89326505 74.9116941 -85.19409288 72.48009402 -82.5 70 C-78.94329756 66.72581577 -75.32838189 63.59357567 -71.5625 60.5625 C-67.56776014 57.34056899 -63.75445651 53.99344505 -60 50.5 C-55.38995664 46.21044887 -50.62217044 42.19589328 -45.71484375 38.24609375 C-42.89326505 35.9116941 -40.19409288 33.48009402 -37.5 31 C-33.94329756 27.72581577 -30.32838189 24.59357567 -26.5625 21.5625 C-22.48991782 18.27646802 -18.58964643 14.86343767 -14.75 11.3125 C-13.9933606 10.61302246 -13.9933606 10.61302246 -13.22143555 9.89941406 C-12.73328369 9.44791992 -12.24513184 8.99642578 -11.7421875 8.53125 C-2.5 0 -2.5 0 0 0 Z " fill="#F6DCDE" transform="translate(256,209)"/>
<path d="M0 0 C3.32784958 1.42768855 5.61648753 3.57973093 8.15625 6.0859375 C9.21773284 7.0974914 10.28158181 8.10656759 11.34765625 9.11328125 C11.8802002 9.61714355 12.41274414 10.12100586 12.96142578 10.64013672 C15.25356381 12.75118514 17.66344147 14.69930914 20.09375 16.6484375 C24.83325822 20.46316363 29.31023997 24.50163182 33.78515625 28.62109375 C36.45000166 31.01301047 39.17956825 33.27848634 41.96875 35.5234375 C46.50361161 39.18100014 50.78661183 43.03210777 55.04833984 46.99755859 C59.15904276 50.79992557 63.45400584 54.32864342 67.81640625 57.83984375 C71.59692286 60.96760929 75.17605875 64.29867633 78.78515625 67.62109375 C81.45000166 70.01301047 84.17956825 72.27848634 86.96875 74.5234375 C91.50361161 78.18100014 95.78661183 82.03210777 100.04833984 85.99755859 C104.15904276 89.79992557 108.45400584 93.32864342 112.81640625 96.83984375 C116.59692286 99.96760929 120.17605875 103.29867633 123.78515625 106.62109375 C126.45000166 109.01301047 129.17956825 111.27848634 131.96875 113.5234375 C136.50361161 117.18100014 140.78661183 121.03210777 145.04833984 124.99755859 C149.15904276 128.79992557 153.45400584 132.32864342 157.81640625 135.83984375 C160.63798495 138.1742434 163.33715712 140.60584348 166.03125 143.0859375 C170.43136717 147.13504817 174.95972564 150.95787547 179.6328125 154.6875 C180.58929688 155.47898437 181.54578125 156.27046875 182.53125 157.0859375 C183.26414749 157.60477509 183.99704498 158.12361267 184.75215149 158.65817261 C191.05369925 163.49241736 191.05369925 163.49241736 192.32440186 167.73257446 C192.56981571 170.79402224 192.54558397 173.73646065 192.41015625 176.8046875 C192.39105446 178.4524115 192.39105446 178.4524115 192.37156677 180.13342285 C192.32144034 183.61990161 192.20858085 187.10105004 192.09375 190.5859375 C192.04857682 192.95825781 192.00751723 195.33066025 191.97070312 197.703125 C191.87181835 203.49919468 191.7214959 209.29218533 191.53125 215.0859375 C190.25957614 214.14336359 188.9894512 213.19869974 187.7199707 212.25317383 C187.01250198 211.72734207 186.30503326 211.20151031 185.5761261 210.65974426 C182.78757336 208.51357846 180.27851884 206.19000249 177.71875 203.7734375 C173.05436651 199.41729603 168.22985351 195.34470099 163.2578125 191.33984375 C159.41179883 188.16054592 155.75058642 184.7947659 152.078125 181.41796875 C149.94183251 179.46188498 147.78344343 177.54406053 145.59375 175.6484375 C142.76645888 173.19619521 140.00421671 170.68276065 137.25952148 168.13842773 C132.09232941 163.35114013 126.80336473 158.81637464 121.3125 154.3984375 C117.76019156 151.44483273 114.39262228 148.31811427 111.01171875 145.171875 C107.77913253 142.18152392 104.46419134 139.34807421 101.03125 136.5859375 C97.05495574 133.38662028 93.26456702 130.06008805 89.53125 126.5859375 C84.92123361 122.2963599 80.15341764 118.28182853 75.24609375 114.33203125 C71.46557714 111.20426571 67.88644125 107.87319867 64.27734375 104.55078125 C61.61249834 102.15886453 58.88293175 99.89338866 56.09375 97.6484375 C51.55888839 93.99087486 47.27588817 90.13976723 43.01416016 86.17431641 C38.90345724 82.37194943 34.60849416 78.84323158 30.24609375 75.33203125 C26.47620533 72.21305881 22.90660549 68.89221903 19.30859375 65.578125 C15.62922246 62.27652319 11.80421412 59.17716954 7.94140625 56.09375 C5.53125 54.0859375 5.53125 54.0859375 3.52734375 51.765625 C1.65993713 49.83980055 1.65993713 49.83980055 -0.8671875 50.0234375 C-4.25710466 51.40790817 -6.52915324 53.55522476 -9.09375 56.0859375 C-10.15523284 57.0974914 -11.21908181 58.10656759 -12.28515625 59.11328125 C-12.8177002 59.61714355 -13.35024414 60.12100586 -13.89892578 60.64013672 C-16.19106381 62.75118514 -18.60094147 64.69930914 -21.03125 66.6484375 C-24.79713189 69.67951317 -28.41204756 72.81175327 -31.96875 76.0859375 C-35.52545244 79.36012173 -39.14036811 82.49236183 -42.90625 85.5234375 C-46.90098986 88.74536851 -50.71429349 92.09249245 -54.46875 95.5859375 C-59.07879336 99.87548863 -63.84657956 103.89004422 -68.75390625 107.83984375 C-71.57548495 110.1742434 -74.27465712 112.60584348 -76.96875 115.0859375 C-80.52545244 118.36012173 -84.14036811 121.49236183 -87.90625 124.5234375 C-91.90098986 127.74536851 -95.71429349 131.09249245 -99.46875 134.5859375 C-104.07879336 138.87548863 -108.84657956 142.89004422 -113.75390625 146.83984375 C-117.52379467 149.95881619 -121.09339451 153.27965597 -124.69140625 156.59375 C-128.37077754 159.89535181 -132.19578588 162.99470546 -136.05859375 166.078125 C-138.50753237 168.04642486 -138.50753237 168.04642486 -140.66015625 170.34375 C-142.46875 172.0859375 -142.46875 172.0859375 -144.46875 172.0859375 C-144.70722656 172.65957031 -144.94570312 173.23320312 -145.19140625 173.82421875 C-146.73925926 176.56491261 -148.54184022 178.19653995 -150.90625 180.2734375 C-152.25203125 181.45679688 -152.25203125 181.45679688 -153.625 182.6640625 C-157.26192705 185.76144543 -160.96931735 188.76572122 -164.68359375 191.76953125 C-167.52406362 194.13194168 -170.25050899 196.58422778 -172.96875 199.0859375 C-179.14887374 204.76880991 -185.47256557 210.42181455 -192.46875 215.0859375 C-192.72343783 208.13076502 -192.89788012 201.17680374 -193.01806641 194.21801758 C-193.06819019 191.85395379 -193.13631169 189.49019748 -193.22314453 187.12719727 C-193.96559839 166.39526513 -193.96559839 166.39526513 -190.38720703 161.63378906 C-187.85861549 159.34585878 -185.45782107 157.70748413 -182.46875 156.0859375 C-181.49164063 155.27382813 -180.51453125 154.46171875 -179.5078125 153.625 C-178.71117187 152.99335938 -177.91453125 152.36171875 -177.09375 151.7109375 C-172.54094493 148.03021903 -168.23457589 144.15945102 -163.9519043 140.17456055 C-159.84114043 136.37208736 -155.54608477 132.84330451 -151.18359375 129.33203125 C-148.36201505 126.9976316 -145.66284288 124.56603152 -142.96875 122.0859375 C-139.41204756 118.81175327 -135.79713189 115.67951317 -132.03125 112.6484375 C-128.03651014 109.42650649 -124.22320651 106.07938255 -120.46875 102.5859375 C-115.85870664 98.29638637 -111.09092044 94.28183078 -106.18359375 90.33203125 C-103.36201505 87.9976316 -100.66284288 85.56603152 -97.96875 83.0859375 C-94.41204756 79.81175327 -90.79713189 76.67951317 -87.03125 73.6484375 C-83.03651014 70.42650649 -79.22320651 67.07938255 -75.46875 63.5859375 C-70.85870664 59.29638637 -66.09092044 55.28183078 -61.18359375 51.33203125 C-58.36201505 48.9976316 -55.66284288 46.56603152 -52.96875 44.0859375 C-49.41204756 40.81175327 -45.79713189 37.67951317 -42.03125 34.6484375 C-38.03651014 31.42650649 -34.22320651 28.07938255 -30.46875 24.5859375 C-25.86889631 20.30586765 -21.12200255 16.29026768 -16.20703125 12.37109375 C-14.22211009 10.71463316 -12.36441532 9.06150358 -10.51171875 7.26953125 C-10.02324463 6.80168213 -9.53477051 6.33383301 -9.03149414 5.85180664 C-7.66818654 4.53294718 -6.32183991 3.1966209 -4.9765625 1.859375 C-2.46875 0.0859375 -2.46875 0.0859375 0 0 Z " fill="#3648BB" transform="translate(256.46875,159.9140625)"/>
<path d="M0 0 C42.24 0 84.48 0 128 0 C128 42.24 128 84.48 128 128 C85.76 128 43.52 128 0 128 C0 85.76 0 43.52 0 0 Z " fill="#F5B84C" transform="translate(192,312)"/>
<path d="M0 0 C3.63401577 1.71122564 6.12637103 3.79933887 9.0625 6.5625 C12.77478591 10.01462571 16.54816138 13.31925184 20.5 16.5 C25.25739668 20.33835414 29.75783918 24.39622359 34.25390625 28.53515625 C36.91875166 30.92707297 39.64831825 33.19254884 42.4375 35.4375 C46.97236161 39.09506264 51.25536183 42.94617027 55.51708984 46.91162109 C59.62779276 50.71398807 63.92275584 54.24270592 68.28515625 57.75390625 C72.06567286 60.88167179 75.64480875 64.21273883 79.25390625 67.53515625 C81.91875166 69.92707297 84.64831825 72.19254884 87.4375 74.4375 C91.97236161 78.09506264 96.25536183 81.94617027 100.51708984 85.91162109 C104.62779276 89.71398807 108.92275584 93.24270592 113.28515625 96.75390625 C117.06567286 99.88167179 120.64480875 103.21273883 124.25390625 106.53515625 C126.91875166 108.92707297 129.64831825 111.19254884 132.4375 113.4375 C136.97236161 117.09506264 141.25536183 120.94617027 145.51708984 124.91162109 C149.62779276 128.71398807 153.92275584 132.24270592 158.28515625 135.75390625 C161.10673495 138.0883059 163.80590712 140.51990598 166.5 143 C170.90011717 147.04911067 175.42847564 150.87193797 180.1015625 154.6015625 C181.05804688 155.39304687 182.01453125 156.18453125 183 157 C183.73289749 157.51883759 184.46579498 158.03767517 185.22090149 158.57223511 C191.52244925 163.40647986 191.52244925 163.40647986 192.79315186 167.64663696 C193.03856571 170.70808474 193.01433397 173.65052315 192.87890625 176.71875 C192.85980446 178.366474 192.85980446 178.366474 192.84031677 180.04748535 C192.79019034 183.53396411 192.67733085 187.01511254 192.5625 190.5 C192.51732682 192.87232031 192.47626723 195.24472275 192.43945312 197.6171875 C192.34056835 203.41325718 192.1902459 209.20624783 192 215 C190.72832614 214.05742609 189.4582012 213.11276224 188.1887207 212.16723633 C187.12751762 211.37848869 187.12751762 211.37848869 186.0448761 210.57380676 C183.25632336 208.42764096 180.74726884 206.10406499 178.1875 203.6875 C173.52311651 199.33135853 168.69860351 195.25876349 163.7265625 191.25390625 C159.88054883 188.07460842 156.21933642 184.7088284 152.546875 181.33203125 C150.41058251 179.37594748 148.25219343 177.45812303 146.0625 175.5625 C143.23520888 173.11025771 140.47296671 170.59682315 137.72827148 168.05249023 C132.56107941 163.26520263 127.27211473 158.73043714 121.78125 154.3125 C118.22894156 151.35889523 114.86137228 148.23217677 111.48046875 145.0859375 C108.24788253 142.09558642 104.93294134 139.26213671 101.5 136.5 C97.52370574 133.30068278 93.73331702 129.97415055 90 126.5 C85.38998361 122.2104224 80.62216764 118.19589103 75.71484375 114.24609375 C71.93432714 111.11832821 68.35519125 107.78726117 64.74609375 104.46484375 C62.08124834 102.07292703 59.35168175 99.80745116 56.5625 97.5625 C52.02763839 93.90493736 47.74463817 90.05382973 43.48291016 86.08837891 C39.37220724 82.28601193 35.07724416 78.75729408 30.71484375 75.24609375 C26.94211138 72.12476841 23.36985468 68.80141117 19.76953125 65.484375 C16.1600309 62.24651573 12.40451216 59.21477212 8.60546875 56.203125 C7.74566406 55.47609375 6.88585937 54.7490625 6 54 C4.96834717 53.19320801 3.93669434 52.38641602 2.8737793 51.55517578 C-0.63185541 47.99943799 -0.68206384 44.84453534 -0.67977905 40.00186157 C-0.64881134 38.98288788 -0.61784363 37.96391418 -0.5859375 36.9140625 C-0.57744781 35.85714203 -0.56895813 34.80022156 -0.56021118 33.71127319 C-0.52672617 30.34812859 -0.45145131 26.98741518 -0.375 23.625 C-0.34489428 21.33987847 -0.31751954 19.05471921 -0.29296875 16.76953125 C-0.22695131 11.17886334 -0.12665139 5.58960537 0 0 Z " fill="#0A1488" transform="translate(256,160)"/>
<path d="M0 0 C8.84912149 6.37373909 15.30567505 14.71297139 17.58203125 25.4921875 C18.7415891 36.13605345 17.34211974 44.79322784 12.58203125 54.4921875 C12.27620117 55.12705078 11.97037109 55.76191406 11.65527344 56.41601562 C5.96944078 68.1026232 -0.94843648 78.87637677 -8.41796875 89.4921875 C-8.9598584 90.2670752 -9.50174805 91.04196289 -10.06005859 91.84033203 C-11.66120653 94.11300548 -13.28404908 96.36799061 -14.91796875 98.6171875 C-15.41014893 99.31078369 -15.9023291 100.00437988 -16.40942383 100.71899414 C-17.82421875 102.625 -17.82421875 102.625 -20.41796875 105.4921875 C-21.73796875 105.4921875 -23.05796875 105.4921875 -24.41796875 105.4921875 C-26.57421875 103.28125 -26.57421875 103.28125 -28.91796875 100.1171875 C-29.3452124 99.54137939 -29.77245605 98.96557129 -30.21264648 98.37231445 C-64.68995337 51.32173328 -64.68995337 51.32173328 -62.41796875 25.4921875 C-60.22264084 14.72714583 -53.64269792 6.34322777 -44.8359375 0 C-31.48165159 -8.32755148 -13.35428591 -8.32755148 0 0 Z " fill="#F48B8D" transform="translate(278.41796875,21.5078125)"/>
<path d="M0 0 C2.97 0 5.94 0 9 0 C9.14695313 1.32837891 9.14695313 1.32837891 9.296875 2.68359375 C12.64672122 30.43533703 21.97738691 56.03630394 41 77 C41.4635791 77.51272461 41.9271582 78.02544922 42.40478516 78.55371094 C64.24888441 102.39535319 95.7193509 117.28546003 128 119 C128 121.97 128 124.94 128 128 C85.76 128 43.52 128 0 128 C0 85.76 0 43.52 0 0 Z " fill="#D8A148" transform="translate(192,312)"/>
<path d="M0 0 C12.06764206 0 20.23061938 2.62847408 29 11 C37.26753067 19.66044301 40.68488173 29.02673398 40.53662109 40.95751953 C40.19760362 48.03680564 38.09267353 53.6984962 35 60 C34.69416992 60.63486328 34.38833984 61.26972656 34.07324219 61.92382812 C26.74852838 76.97897679 17.34629012 90.65481936 7.375 104.0625 C6.86606201 104.74771729 6.35712402 105.43293457 5.83276367 106.13891602 C2.2505864 110.8747068 2.2505864 110.8747068 0 112 C0 93.52 0 75.04 0 56 C2.97 55.01 5.94 54.02 9 53 C13.17540963 48.82459037 15.1196576 45.56411851 15.3125 39.6875 C15.26001105 35.07597111 14.04413444 32.55149017 11 29 C7.45904191 25.58114391 5.26765343 25.50504384 0 24 C0 16.08 0 8.16 0 0 Z " fill="#EF5836" transform="translate(256,16)"/>
<path d="M0 0 C10.56 0 21.12 0 32 0 C32 18.48 32 36.96 32 56 C21.44 56 10.88 56 0 56 C0 37.52 0 19.04 0 0 Z " fill="#C1A46B" transform="translate(240,312)"/>
<path d="M0 0 C5.67476113 1.96434039 9.31400331 5.62800662 12 11 C12.59057744 16.67862925 12.29370905 21.16922672 9 26 C4.99653611 30.03627917 1.41408246 32.12458106 -4.3125 32.3125 C-8.94226662 32.25237316 -11.4369151 31.06591027 -15 28 C-19.3022759 23.23261319 -20.36282503 19.56252705 -20.28125 13.28125 C-19.69180611 8.50020514 -16.85179203 5.75038822 -13.375 2.6875 C-8.92314854 -0.47565762 -5.3540278 -0.48837416 0 0 Z " fill="#9EC86B" transform="translate(260,40)"/>
</svg>
