<?xml version="1.0" encoding="UTF-8"?>
<svg version="1.1" xmlns="http://www.w3.org/2000/svg" width="65" height="64">
<path d="M0 0 C1.8125 1 1.8125 1 3 3 C3.95183069 6.73593546 4.43184877 9.84840328 3.0625 13.5 C2.711875 13.995 2.36125 14.49 2 15 C4.69871355 16.8084595 4.69871355 16.8084595 8 18 C10.87391821 16.82725006 10.87391821 16.82725006 13 15 C12.649375 14.505 12.29875 14.01 11.9375 13.5 C10.56815123 9.84840328 11.04816931 6.73593546 12 3 C13.1875 1 13.1875 1 15 0 C18.5572204 -0.52979878 20.31593299 -0.43204232 23.375 1.5 C25.78890515 5.21370023 25.41861083 7.60458631 25 12 C24.34 12.99 23.68 13.98 23 15 C23.77085938 15.38671875 24.54171875 15.7734375 25.3359375 16.171875 C26.33882812 16.69265625 27.34171875 17.2134375 28.375 17.75 C29.37273438 18.26046875 30.37046875 18.7709375 31.3984375 19.296875 C34.11875878 21.07774599 35.06214993 21.93014293 36 25 C36.01550531 27.78578701 35.49854643 30.23533342 35 33 C34.67 33.33 34.34 33.66 34 34 C34.804375 34.45375 35.60875 34.9075 36.4375 35.375 C39 37 39 37 40 39 C40 42.3 40 45.6 40 49 C18.55 49 -2.9 49 -25 49 C-25 39 -25 39 -23.125 36.4375 C-21 35 -21 35 -19 34 C-19.350625 33.505 -19.70125 33.01 -20.0625 32.5 C-21.43163361 28.84897703 -21.07497391 25.71861346 -20 22 C-18.4375 20.25 -18.4375 20.25 -16 19 C-15.32582031 18.65066406 -14.65164063 18.30132812 -13.95703125 17.94140625 C-11.98392409 16.93215321 -9.99933161 15.95599109 -8 15 C-8.66 14.34 -9.32 13.68 -10 13 C-10.70816502 8.73454092 -10.71135006 5.12174433 -8.375 1.4375 C-5.31352771 -0.41549639 -3.5214898 -0.5244772 0 0 Z " fill="#DE6A4F" transform="translate(25,15)"/>
<path d="M0 0 C2.375 1.5 2.375 1.5 4 4 C4.68887481 8.27963474 4.4567061 11.31494085 2 15 C2.77085938 15.38671875 3.54171875 15.7734375 4.3359375 16.171875 C5.33882812 16.69265625 6.34171875 17.2134375 7.375 17.75 C8.37273438 18.26046875 9.37046875 18.7709375 10.3984375 19.296875 C13.11875878 21.07774599 14.06214993 21.93014293 15 25 C15.01550531 27.78578701 14.49854643 30.23533342 14 33 C13.67 33.33 13.34 33.66 13 34 C13.804375 34.45375 14.60875 34.9075 15.4375 35.375 C18 37 18 37 19 39 C19 42.3 19 45.6 19 49 C11.74 49 4.48 49 -3 49 C-3.33 45.7 -3.66 42.4 -4 39 C-6.83656989 35.96731398 -6.83656989 35.96731398 -10 34 C-9.34 33.34 -8.68 32.68 -8 32 C-7.49033587 26.11663097 -7.49033587 26.11663097 -10 21 C-10.99 20.67 -11.98 20.34 -13 20 C-12 17 -12 17 -9.9375 15.8125 C-8.9784375 15.4103125 -8.9784375 15.4103125 -8 15 C-8.350625 14.505 -8.70125 14.01 -9.0625 13.5 C-10.43184877 9.84840328 -9.95183069 6.73593546 -9 3 C-6.80224196 -0.70148722 -4.05398921 -0.57914132 0 0 Z " fill="#738B28" transform="translate(46,15)"/>
<path d="M0 0 C2.375 1.5 2.375 1.5 4 4 C4.68887481 8.27963474 4.4567061 11.31494085 2 15 C3.2375 15.680625 3.2375 15.680625 4.5 16.375 C5.325 16.91125 6.15 17.4475 7 18 C7 18.66 7 19.32 7 20 C5.02 20.99 5.02 20.99 3 22 C2.97303635 23.79158489 2.95362083 25.58328473 2.9375 27.375 C2.92589844 28.37273438 2.91429687 29.37046875 2.90234375 30.3984375 C2.81993398 32.98432453 2.81993398 32.98432453 4 35 C1.32521756 36.6627026 -0.9995144 37.99983813 -4 39 C-4.433125 38.54625 -4.86625 38.0925 -5.3125 37.625 C-7.10798342 35.79975666 -7.10798342 35.79975666 -10 34 C-9.34 33.34 -8.68 32.68 -8 32 C-7.49033587 26.11663097 -7.49033587 26.11663097 -10 21 C-10.99 20.67 -11.98 20.34 -13 20 C-12 17 -12 17 -9.9375 15.8125 C-8.9784375 15.4103125 -8.9784375 15.4103125 -8 15 C-8.350625 14.505 -8.70125 14.01 -9.0625 13.5 C-10.43184877 9.84840328 -9.95183069 6.73593546 -9 3 C-6.80224196 -0.70148722 -4.05398921 -0.57914132 0 0 Z " fill="#9CCFF5" transform="translate(46,15)"/>
<path d="M0 0 C1.11246094 -0.0103125 2.22492187 -0.020625 3.37109375 -0.03125 C7.40355137 0.64000366 8.98020831 1.29506227 11.5625 4.5 C11.5625 7.8 11.5625 11.1 11.5625 14.5 C4.3025 14.5 -2.9575 14.5 -10.4375 14.5 C-10.4375 4.5 -10.4375 4.5 -8.83984375 1.90625 C-5.72892518 0.0852245 -3.59463356 -0.03324517 0 0 Z " fill="#A0BC28" transform="translate(10.4375,49.5)"/>
<path d="M0 0 C1.22847656 0.0103125 2.45695312 0.020625 3.72265625 0.03125 C4.94855469 0.0209375 6.17445312 0.010625 7.4375 0 C10.78515625 0.53125 10.78515625 0.53125 13.2265625 1.9375 C14.78515625 4.53125 14.78515625 4.53125 14.78515625 14.53125 C7.85515625 14.53125 0.92515625 14.53125 -6.21484375 14.53125 C-6.21484375 1.02699727 -6.21484375 1.02699727 0 0 Z " fill="#FCB054" transform="translate(28.21484375,49.46875)"/>
<path d="M0 0 C2.375 1.5 2.375 1.5 4 4 C4.6908363 7.78795633 4.42804058 10.92989856 3 14.5 C0.28897073 16.53327195 -1.78402736 16.63192017 -5.12109375 16.44140625 C-7 16 -7 16 -9.0625 14 C-10.37510154 9.79967506 -9.97287405 7.30844224 -9 3 C-6.80224196 -0.70148722 -4.05398921 -0.57914132 0 0 Z " fill="#854826" transform="translate(46,15)"/>
<path d="M0 0 C1.8125 1 1.8125 1 3 3 C3.97287405 7.30844224 4.37510154 9.79967506 3.0625 14 C0.34362614 16.63648374 -1.39406653 16.52433233 -5.0625 16.46875 C-7.5700303 15.86208944 -8.48144453 15.07582354 -10 13 C-10.86672198 8.76008978 -10.70069294 5.10493887 -8.375 1.4375 C-5.31352771 -0.41549639 -3.5214898 -0.5244772 0 0 Z " fill="#E2A66E" transform="translate(25,15)"/>
<path d="M0 0 C2.06301731 2.26931905 2.94714701 3.91545672 3.09765625 7.00390625 C2.86229407 10.12101995 2.3895645 12.48058066 0.5 15 C-3.29196783 16.51678713 -6.96832655 16.23259655 -11 16 C-10.34 15.34 -9.68 14.68 -9 14 C-9.33 13.67 -9.66 13.34 -10 13 C-10.42283258 9.29115419 -10.4918953 5.70303206 -10 2 C-6.86747754 -1.2220231 -4.14201589 -1.74400669 0 0 Z " fill="#DEA76F" transform="translate(58,35)"/>
<path d="M0 0 C5.75 1.625 5.75 1.625 8 5 C8.56811594 10.11304348 8.56811594 10.11304348 8 13 C5.8125 15.5625 5.8125 15.5625 3 17 C0.16737925 16.93255665 -1.38969703 16.35776381 -3.8125 14.9375 C-5.75201753 11.77302403 -5.76948799 8.53140026 -5 5 C-2.5 2 -2.5 2 0 0 Z " fill="#8A5030" transform="translate(31,34)"/>
<path d="M0 0 C2.27072657 1.72205819 2.93290813 2.5548851 3.36328125 5.41015625 C3.34652344 6.28542969 3.32976563 7.16070312 3.3125 8.0625 C3.30863281 8.94035156 3.30476563 9.81820312 3.30078125 10.72265625 C3 13 3 13 1 15 C-2.00628025 15.33403114 -4.10535584 15.56120652 -7 15 C-9.33095612 12.73967891 -9.94736526 11.22973882 -10.0859375 7.9921875 C-9.85554482 4.7060603 -9.39798066 2.46904864 -7.25 -0.0625 C-4.33706732 -1.27622195 -2.95176635 -1.05960843 0 0 Z " fill="#B35F30" transform="translate(14,35)"/>
<path d="M0 0 C3.4375 0.25 3.4375 0.25 7 1 C9.92332269 5.38498404 9.1356502 8.7774672 9 14 C5.7 14 2.4 14 -1 14 C-1.02685938 11.85423363 -1.04633088 9.70837355 -1.0625 7.5625 C-1.07410156 6.36753906 -1.08570313 5.17257813 -1.09765625 3.94140625 C-1 1 -1 1 0 0 Z " fill="#DE6B52" transform="translate(34,50)"/>
<path d="M0 0 C0 5.28 0 10.56 0 16 C0.66 16.33 1.32 16.66 2 17 C-0.55687669 16.65447612 -2.57501375 16.24912987 -4.8125 14.9375 C-6.75354278 11.77053547 -6.76320241 8.53410844 -6 5 C-1.9375 0 -1.9375 0 0 0 Z " fill="#B56031" transform="translate(32,34)"/>
<path d="M0 0 C2.37948772 0.17625835 3.70225849 0.69719773 5.37890625 2.40234375 C6.62115486 3.90649092 7.81376056 5.45129851 9 7 C7.68 7.99 6.36 8.98 5 10 C2.69 7.69 0.38 5.38 -2 3 C-1.34 2.01 -0.68 1.02 0 0 Z " fill="#FFE376" transform="translate(17,2)"/>
<path d="M0 0 C0.59296875 0.22558594 1.1859375 0.45117188 1.796875 0.68359375 C1.62061665 3.06308147 1.09967727 4.38585224 -0.60546875 6.0625 C-2.10961592 7.30474861 -3.65442351 8.49735431 -5.203125 9.68359375 C-6.193125 8.36359375 -7.183125 7.04359375 -8.203125 5.68359375 C-7.30284912 4.64827649 -6.38219465 3.6306521 -5.453125 2.62109375 C-4.68742187 1.76837891 -4.68742187 1.76837891 -3.90625 0.8984375 C-2.203125 -0.31640625 -2.203125 -0.31640625 0 0 Z " fill="#FFB554" transform="translate(47.203125,2.31640625)"/>
<path d="M0 0 C1.65 0 3.3 0 5 0 C5 2.97 5 5.94 5 9 C3.35 9 1.7 9 0 9 C0 6.03 0 3.06 0 0 Z " fill="#FFCC64" transform="translate(30,0)"/>
</svg>
