<?xml version="1.0" encoding="UTF-8"?>
<svg width="350px" height="230px" viewBox="0 0 350 230" version="1.1" xmlns="http://www.w3.org/2000/svg" xmlns:xlink="http://www.w3.org/1999/xlink">
    <!-- Generator: Sketch 63.1 (92452) - https://sketch.com -->
    <title>shop-feature-02</title>
    <desc>Created with Sketch.</desc>
    <defs>
        <linearGradient x1="7.29925849%" y1="58.6979165%" x2="116.498939%" y2="39.9557466%" id="linearGradient-1">
            <stop stop-color="#231F20" offset="0%"></stop>
            <stop stop-color="#231F20" stop-opacity="0" offset="100%"></stop>
        </linearGradient>
    </defs>
    <g id="Page-1" stroke="none" stroke-width="1" fill="none" fill-rule="evenodd">
        <g id="Shop-Landing-Page" transform="translate(-625.000000, -1040.000000)">
            <g id="Group-10" transform="translate(235.000000, 929.000000)">
                <g id="Group-5" transform="translate(0.000000, 110.000000)">
                    <g id="03-Features-">
                        <g id="01-copy" transform="translate(390.000000, 0.000000)">
                            <g id="shop-feature-02" transform="translate(0.000000, 1.000000)">
                                <path d="M99.8113436,71.7101018 C43.7420568,90.4055071 7.6293957,118.488116 2.49422552,148.018166 C-2.64094467,177.548216 -1.87066914,213.612912 34.2165983,210.599526 C183.401757,198.182007 242.94998,212.233187 270.166382,211.578594 C326.001483,210.246836 360.201152,187.068032 346.731205,145.238967 C335.129107,109.267382 294.420186,72.8753904 273.459098,65.3588555 C233.472488,51.0734893 184.849198,43.3481618 99.8113436,71.7101018 Z" id="XMLID_6_" fill="#F3F4F5" fill-rule="nonzero"></path>
                                <rect id="Rectangle" fill-opacity="0.01" fill="#D8D8D8" x="0" y="0" width="350" height="230"></rect>
                                <g id="Group" transform="translate(3.103674, 32.000000)" fill-rule="nonzero">
                                    <path d="M270.355424,33.3588555 C257.841974,28.8867431 244.479245,25.0607591 229.423603,22.7781477 C229.330493,25.6702079 229.248669,31.6377271 229.886333,36.4653514 C229.923013,36.744682 230.016123,37.4049182 230.43653,38.1187633 C231.960152,40.706099 235.955427,40.8782119 236.810348,40.9515715 C245.983116,41.7500622 293.269005,55.4993393 306.688164,76.8356893 C309.631012,81.5165944 313.121234,90.020662 310.756799,104.84776 C309.760802,109.83339 307.069069,122.372234 295.901485,132.509963 C287.380488,140.246576 278.080752,142.81134 273.515529,143.745264 L273.385739,139.17722 C273.289807,135.811144 270.575503,133.799399 268.428325,135.497955 L231.816254,164.458057 C228.599719,167.00307 228.726687,173.345852 232.036333,175.653857 L234.711136,177.518883 C248.979573,178.763174 259.326094,179.764815 267.059886,179.578594 C281.875699,179.225904 295.167889,177.335484 306.448335,173.963765 C316.543741,166.684238 326.966443,156.241785 334.426548,141.445723 C335.442295,139.431157 340.978122,128.060423 343.294591,112.257077 C331.283372,76.607146 291.12747,40.8076738 270.355424,33.3588555 Z" id="Path" fill="#D5D8DB"></path>
                                    <path d="M47.7627258,67.3328029 C56.2837224,59.5961894 65.5834592,57.0314258 70.1486819,56.097502 L70.278472,60.6655462 C70.3744037,64.0316221 73.088708,66.0433673 75.2358863,64.344811 L111.845135,35.3847084 C112.096251,35.1843803 112.324794,34.9614801 112.536408,34.7188292 C107.404059,36.2424511 102.130635,37.9015061 96.7076693,39.7101018 C42.7065582,57.7170557 7.22309652,84.4312267 0.0902887066,112.756487 C0.767454006,117.835227 1.94402871,123.063507 3.76673198,128.348218 C5.22263737,132.563572 6.66161363,135.571314 7.44599677,137.202154 C11.3594479,145.316852 20.7889747,161.503924 43.705377,177.597886 C70.0612148,175.597427 93.4770265,174.443424 114.297038,173.881941 C114.316789,170.812125 114.2265,166.805564 113.775056,163.374593 C113.738377,163.095262 113.645266,162.435026 113.22486,161.721181 C111.701238,159.133845 107.705962,158.961732 106.851041,158.888373 C97.6782729,158.089882 50.3923843,144.340605 36.9732253,123.004255 C34.0303778,118.32335 30.540155,109.819282 32.9045905,94.9921839 C33.9005878,90.0093759 36.5923199,77.4705317 47.7627258,67.3328029 Z" id="Path" fill="#D5D8DB"></path>
                                    <path d="M265.124322,119.463245 C261.010543,115.902484 262.074257,109.286015 237.772487,90.150452 C223.176753,78.6583925 213.185744,70.9302436 204.740928,69.5618054 C204.740928,69.5618054 204.740928,69.5618054 204.740928,69.5618054 C204.622424,69.5194825 204.388238,69.4884458 204.060941,69.4630521 C202.921046,69.3247975 201.806545,69.3050468 200.711795,69.4122647 C197.424721,69.4404799 192.963895,69.5956636 190.416061,69.646451 C188.384565,69.6859523 186.592898,69.6549156 185.091848,69.5984851 L185.289355,69.3078684 C183.339683,67.9845745 181.203791,66.64153 178.876035,65.3182361 C175.792112,63.5660709 172.835157,62.1101655 170.081351,60.9025541 C166.94664,52.006295 168.377152,43.7759151 169.014816,40.8189599 C170.09828,40.4267684 172.758975,39.289695 174.69454,36.485102 C177.002545,33.1415983 176.706285,29.707806 176.584959,28.2801158 C176.472098,26.9709296 176.212518,26.3022288 175.972689,25.946717 C176.607532,24.3835938 177.050511,22.9220454 177.34677,21.5733578 C164.771246,22.741468 151.11508,24.9478982 136.149726,28.4409426 C135.421774,34.560824 135.740606,39.490023 136.192049,42.8758495 C137.394018,51.9188278 140.051891,54.373552 141.857666,55.394943 C142.77466,55.9141031 143.638046,56.156754 144.247495,56.2837224 C144.357534,59.3761106 144.467574,62.4684988 144.580434,65.560887 C142.839555,66.8390365 141.011209,68.1312937 139.098217,69.4263723 C137.329123,70.6226977 135.591065,71.7513065 133.886866,72.8150203 C133.836078,72.8291279 133.782469,72.8432355 133.731682,72.8545216 C133.156092,72.9504534 132.673611,73.088708 132.284241,73.2297841 C132.284241,73.2297841 132.284241,73.2297841 132.284241,73.2297841 L132.284241,73.2297841 C129.852089,74.1072774 127.829058,76.0908074 126.141788,78.9010434 C118.645003,88.6550453 117.835227,104.712327 112.161146,134.978795 C111.506553,138.474661 110.939427,141.330041 110.572629,143.161209 C106.749466,141.155107 102.926304,139.149004 99.1059631,137.142902 C89.9049795,129.420396 80.703996,121.69789 71.5030125,113.975384 L71.5030125,113.975384 C70.9753879,111.777419 68.0692202,100.209178 64.8921863,97.6472361 C64.6551785,97.4553726 64.4266352,97.2860813 64.2065564,97.1280761 C66.9829342,89.0190216 69.9229602,81.0707939 72.8460571,73.9436291 C72.1463196,73.5994034 71.4409391,73.2579993 70.7299155,72.9165951 L71.1192855,71.8274876 L71.0543905,71.8049154 L71.4578682,70.4505848 L71.4578682,70.4505848 C71.3365427,70.0668578 71.2180388,69.6831308 71.0967134,69.2994038 C67.3158738,68.306228 63.5322127,67.3158738 59.7513731,66.322698 C63.4927114,67.2086559 67.2312281,68.0946139 70.9725664,68.9805718 C70.7355585,68.619417 70.4985507,68.2610837 70.2615428,67.8999288 C63.0976983,65.4734199 55.9338537,63.0497324 48.7728307,60.6232234 C43.0366763,63.8990105 37.7406793,67.3045877 32.9102335,70.8173827 C31.7167297,75.9158731 30.3821498,81.1159383 28.875457,86.4119352 L26.6069532,94.046974 C23.4609561,101.137459 20.314959,108.230765 17.1689619,115.32125 C17.1604973,116.032274 17.1548542,116.743298 17.1463897,117.454321 C17.75866,116.856158 18.3709303,116.255174 18.9860221,115.657012 C18.4922557,116.441395 17.9984893,117.225778 17.5075445,118.010161 C18.5176494,118.283849 19.5277543,118.554715 20.5378592,118.828402 C20.2980298,119.801828 20.061022,120.778074 19.8211926,121.751499 C22.6991451,122.648743 25.5996698,123.574203 28.5227667,124.522234 C29.0955357,125.806026 29.7049845,126.931814 30.291861,127.902417 C30.3370054,128.0181 30.3849713,128.133782 30.4301156,128.249465 C30.4555093,128.252286 30.4837245,128.257929 30.5091182,128.260751 C30.5119398,128.266394 30.5147613,128.269215 30.5175828,128.274858 L30.5204043,128.263572 C35.8784748,128.985882 41.5553772,130.012916 47.4918596,131.437785 C49.1142348,131.827155 50.7027518,132.236275 52.2574104,132.656682 C52.4718461,132.732863 52.6862818,132.809044 52.897896,132.888047 L52.9120036,132.83726 C53.0361505,132.871118 53.1602975,132.904976 53.281623,132.938834 C53.3352319,132.738506 53.3888408,132.532535 53.4424497,132.332207 C53.5919904,131.770724 53.7443526,131.20642 53.8995363,130.636472 C53.9023578,130.628008 53.9051793,130.616722 53.9080009,130.608257 C54.0631846,130.03831 54.2183683,129.465541 54.3763735,128.88995 C54.379195,128.881486 54.379195,128.875843 54.3820166,128.867378 C54.5400218,128.288966 54.7036701,127.707732 54.8673184,127.120856 C54.8701399,127.10957 54.8729614,127.098284 54.8757829,127.086998 C54.9632501,126.770987 55.0535388,126.452155 55.1438275,126.133323 C57.9202053,128.27768 63.4334594,128.528795 64.722895,128.559832 C64.7116089,128.565475 64.7003228,128.57394 64.6890367,128.579583 C65.685034,129.758979 67.1606901,131.530895 68.8931046,133.72886 C75.8509781,142.55176 78.6753217,147.751825 82.9329985,153.572625 C84.470728,155.677481 86.4457935,158.219672 88.9118038,161.049659 C88.9118038,161.049659 88.9118038,161.049659 88.9118038,161.049659 C88.7735492,162.000512 88.7481555,163.323806 89.4986804,164.401627 C90.1927748,165.397624 91.118234,165.558451 92.4641001,166.404908 C94.1287981,167.454514 94.8877875,168.57748 95.7850316,169.6158 C95.8386405,169.677873 95.8781418,169.723018 95.8950709,169.742768 C97.4610157,171.557007 98.9677085,173.069343 100.364362,174.333385 C171.870196,171.630367 215.078985,175.809041 242.092237,178.167833 C254.315071,163.834501 259.306344,147.647429 261.456344,135.907076 C261.456344,135.907076 261.459165,135.907076 261.459165,135.907076 C261.464808,135.87886 261.46763,135.847824 261.473273,135.819608 C261.761068,134.239556 262.000897,132.735685 262.195582,131.333388 C262.195582,131.333388 262.195582,131.333388 262.195582,131.333388 C264.196041,130.842443 265.979243,130.103205 266.145713,128.971774 C266.377078,127.417116 263.41448,126.051499 263.899782,124.276762 C264.260936,122.953468 266.162642,122.770069 266.275503,121.469347 C266.365792,120.504387 265.39801,119.697431 265.124322,119.463245 Z M171.977414,26.4912708 C171.768621,26.649276 171.559829,26.8213889 171.353857,27.0104309 C171.353857,26.968108 171.353857,26.9257852 171.353857,26.8834624 C171.542899,26.7480293 171.748871,26.6154178 171.977414,26.4912708 Z M252.091712,132.749792 C252.071961,132.752614 252.049389,132.752614 252.029638,132.755435 C252.055032,132.752614 252.080426,132.749792 252.105819,132.746971 C252.102998,132.746971 252.097355,132.746971 252.091712,132.749792 Z M255.079704,132.419674 C255.068418,132.422496 255.05431,132.422496 255.043024,132.425317 C255.037381,132.425317 255.031738,132.425317 255.028916,132.428139 C255.079704,132.422496 255.133313,132.416853 255.1841,132.408388 C255.14742,132.41121 255.113562,132.416853 255.079704,132.419674 Z M256.024914,132.306813 C256.007984,132.309635 255.991055,132.309635 255.974126,132.312456 C256.041843,132.303992 256.109559,132.295527 256.177276,132.287063 C256.12931,132.292706 256.078522,132.30117 256.024914,132.306813 Z M258.521961,131.993624 C258.510674,131.996446 258.499388,131.996446 258.488102,131.999267 C258.505031,131.996446 258.524782,131.993624 258.541711,131.990803 C258.536068,131.990803 258.527604,131.990803 258.521961,131.993624 Z M259.001619,131.925908 C258.995976,131.925908 258.993155,131.925908 258.987512,131.928729 C258.998798,131.925908 259.010084,131.925908 259.02137,131.923086 C259.012905,131.925908 259.007262,131.925908 259.001619,131.925908 Z" id="Shape" fill="#D5D8DB"></path>
                                    <path d="M331.695314,72.8827368 C330.309947,68.873354 328.941509,66.0095091 328.193805,64.4604934 C323.295643,54.3001924 309.315001,30.8392363 268.944663,11.7883192 L268.944663,11.7883192 C267.502865,11.0942248 266.075175,10.4509178 264.664414,9.8527551 C264.664414,9.8527551 257.740399,6.48103622 234.547487,2.53090531 C233.472488,2.34750637 230.887973,1.94402871 229.152737,3.41122019 C228.035414,4.35643009 227.719404,5.69101003 227.581149,6.33149555 C226.373538,11.9040017 227.022488,18.7123344 226.683905,24.8942893 C226.683905,24.8942893 226.223997,33.2544592 227.059168,39.5662041 C227.093026,39.8314272 227.183315,40.4606266 227.583971,41.1377919 C229.034233,43.5981592 232.832002,43.7618075 233.647422,43.8323455 C242.371568,44.5913349 287.349452,57.6690898 300.116839,77.9642981 C302.915789,82.4166599 306.233899,90.5059638 303.985146,104.610753 C303.037114,109.35091 300.477994,121.280305 289.852142,130.924268 C281.745909,138.282797 272.900437,140.720592 268.558115,141.612193 L268.433968,137.267049 C268.340857,134.064622 265.761986,132.15163 263.716383,133.768362 L228.893157,161.314882 C225.834627,163.735748 225.953131,169.770984 229.104771,171.963306 L265.084821,197.03253 C267.172747,198.485614 269.655687,196.437189 269.655687,193.260155 L269.655687,184.916914 C275.089938,183.466652 309.182389,173.771902 326.500892,139.422692 C328.188162,136.073545 342.989867,105.592642 331.695314,72.8827368 Z" id="Path" fill="#ED4B3F"></path>
                                    <path d="M116.607865,160.279383 C116.574006,160.01416 116.483718,159.384961 116.083061,158.707795 C114.632799,156.247428 110.83503,156.08378 110.01961,156.013242 C101.295464,155.254252 56.3175807,142.176498 43.5501933,121.881289 C40.7512434,117.428927 37.4331334,109.339624 39.6818865,95.2348348 C40.6299179,90.4946777 43.1890385,78.5652823 53.8148906,68.9213198 C61.9211236,61.5627903 70.7665953,59.1249952 75.1089178,58.2333942 L75.2330647,62.5785382 C75.326175,65.7809658 77.9050461,67.6939577 79.9506497,66.0772256 L114.773875,38.5307055 C117.832405,36.1098396 117.713901,30.0746038 114.562261,27.8822812 L78.5793899,2.81305751 C76.4914636,1.35997364 74.0085242,3.40839867 74.0085242,6.58543253 L74.0085242,14.9286733 C68.5742726,16.3789357 34.4818213,26.0736855 17.1633188,60.4228953 C15.4760486,63.772042 0.674343777,94.2501236 11.9660751,126.960029 C13.3514425,130.969412 14.7198807,133.833257 15.467584,135.382272 C20.3657464,145.542573 34.3463883,169.00353 74.7167262,188.054447 L74.7167262,188.054447 C76.158524,188.748541 77.5862141,189.391848 78.9969752,189.990011 C78.9969752,189.990011 85.9209904,193.36173 109.113902,197.311861 C110.188902,197.495259 112.773416,197.898737 114.508652,196.431546 C115.625975,195.486336 115.941985,194.151756 116.08024,193.51127 C117.287851,187.938764 116.638901,181.130431 116.977484,174.948477 C116.980305,174.951298 117.440214,166.591128 116.607865,160.279383 Z" id="Path" fill="#ED4B3F"></path>
                                    <path d="M259.001619,131.925908 C258.995976,131.925908 258.993155,131.925908 258.987512,131.928729 C258.998798,131.925908 259.010084,131.925908 259.02137,131.923086 C259.012905,131.925908 259.007262,131.925908 259.001619,131.925908 Z M258.521961,131.993624 C258.510674,131.996446 258.499388,131.996446 258.488102,131.999267 C258.505031,131.996446 258.524782,131.993624 258.541711,131.990803 C258.536068,131.990803 258.527604,131.990803 258.521961,131.993624 Z M255.043024,132.425317 C255.037381,132.425317 255.031738,132.425317 255.028916,132.428139 C255.079704,132.422496 255.133313,132.416853 255.1841,132.408388 C255.150242,132.41121 255.116383,132.416853 255.082525,132.419674 C255.068418,132.422496 255.05431,132.422496 255.043024,132.425317 Z M252.03246,132.755435 C252.057853,132.752614 252.083247,132.749792 252.108641,132.746971 C252.102998,132.746971 252.097355,132.746971 252.091712,132.749792 C252.071961,132.749792 252.05221,132.752614 252.03246,132.755435 Z M255.974126,132.312456 C256.041843,132.303992 256.109559,132.295527 256.177276,132.287063 C256.126488,132.292706 256.075701,132.298349 256.024914,132.306813 C256.007984,132.306813 255.991055,132.309635 255.974126,132.312456 Z M242.518287,132.80058 C242.492894,132.794937 242.4675,132.792115 242.442106,132.789294 C242.4675,132.794937 242.492894,132.797758 242.518287,132.80058 Z M242.007592,132.704648 C241.970912,132.696183 241.934232,132.69054 241.900374,132.682076 C241.934232,132.69054 241.970912,132.699005 242.007592,132.704648 Z M241.499718,132.588966 C241.460217,132.580501 241.423537,132.569215 241.384035,132.56075 C241.420715,132.569215 241.460217,132.580501 241.499718,132.588966 Z M241.00313,132.450711 C240.96645,132.439425 240.932592,132.428139 240.895912,132.416853 C240.932592,132.428139 240.969272,132.439425 241.00313,132.450711 Z M240.531936,132.292706 C240.500899,132.28142 240.472684,132.270134 240.444469,132.258847 C240.472684,132.270134 240.500899,132.28142 240.531936,132.292706 Z M240.083314,132.112128 C240.066385,132.106485 240.052277,132.098021 240.038169,132.089556 C240.052277,132.098021 240.069206,132.106485 240.083314,132.112128 Z M171.353857,26.8834624 C171.542899,26.7508508 171.748871,26.6182393 171.977414,26.4912708 C171.768621,26.649276 171.559829,26.8213889 171.353857,27.0104309 C171.353857,26.968108 171.353857,26.9257852 171.353857,26.8834624 Z" id="Shape" fill="#DD332F"></path>
                                    <g transform="translate(16.929132, 57.276898)" fill="#DD332F" id="Path">
                                        <path d="M26.6238823,64.6043911 C23.8249324,60.1520292 20.5068225,52.0627254 22.7555756,37.9579365 C23.703607,33.2177794 26.2627275,21.2883841 36.8885797,11.6444216 C38.8692882,9.84711206 40.8923195,8.34606231 42.8843141,7.08766346 C36.030837,4.76555079 29.1745383,2.44625964 22.3210612,0.124146972 C21.7285415,0.296259818 21.1360219,0.465551143 20.5435023,0.63766399 C21.1783447,1.04114165 21.8131872,1.44744083 22.4480297,1.85091848 C21.7087909,1.55183714 20.9667306,1.24993428 20.2274918,0.950852941 C19.6914026,1.05524926 19.1553134,1.15964557 18.6192242,1.26404189 C16.872702,10.2054454 14.6832009,19.5192897 11.949146,29.135037 L9.68064226,36.7700757 C6.53464514,43.8605607 3.38864802,50.9538672 0.242650899,58.0443522 C0.234186333,58.7553758 0.228543288,59.4663994 0.220078722,60.1774229 C0.832349014,59.5792602 1.4446193,58.978276 2.05971112,58.3801134 C1.56594475,59.1644965 1.07217839,59.9488796 0.581233548,60.7332628 C1.59133845,61.0069504 2.60144336,61.2778165 3.61154826,61.5515042 C3.37171889,62.5249293 3.13471103,63.5011759 2.89488165,64.474601 C5.77283418,65.3718451 8.67335887,66.2973043 11.5964557,67.2453357 C12.1692247,68.5291283 12.7786735,69.6549156 13.3655501,70.6255192 C13.4106944,70.7412016 13.4586603,70.856884 13.5038047,70.9725664 C13.5291984,70.9753879 13.5574136,70.981031 13.5828073,70.9838525 C13.5856288,70.9894955 13.5884503,70.992317 13.5912719,70.9979601 L13.5940934,70.986674 C18.9521638,71.7089837 24.6290662,72.7360177 30.5655487,74.1608863 C32.1879239,74.5502564 33.7764408,74.9593771 35.3310995,75.3797839 C35.5455352,75.455965 35.7599708,75.5321461 35.971585,75.6111487 L35.9856926,75.5603613 C36.1098396,75.5942196 36.2339865,75.6280778 36.355312,75.6619361 C36.4089209,75.461608 36.4625298,75.2556369 36.5161388,75.0553088 C36.5161388,75.0524873 36.5189603,75.0468443 36.5189603,75.0440228 C32.4164672,71.8303091 28.9713887,68.3400863 26.6238823,64.6043911 Z"></path>
                                        <path d="M99.1539289,101.430897 C97.7036666,98.97053 93.9058979,98.8068817 93.090478,98.7363437 C88.6747959,98.3526167 74.9734847,94.8087849 60.8602313,88.7763707 C62.6095749,91.3947432 64.1783412,93.7873939 66.0123306,96.2957271 C67.5500601,98.4005825 69.5251256,100.942774 71.9911359,103.772761 C71.9911359,103.772761 71.9911359,103.772761 71.9911359,103.772761 C71.8528813,104.723614 71.8274876,106.046907 72.5780125,107.124729 C73.2721069,108.120726 74.1975661,108.281553 75.5434322,109.128009 C77.2081302,110.177616 77.9671196,111.300581 78.8643637,112.338902 C78.9179726,112.400975 78.9574739,112.446119 78.974403,112.46587 C85.8617384,120.433848 91.6035358,122.685423 91.6035358,122.685423 C93.2823415,123.342838 96.7048478,124.683061 99.9383121,124.01436 C99.9383121,121.875646 99.9411336,119.739754 100.053994,117.671578 C100.053994,117.671578 100.513903,109.311408 99.678732,102.999664 C99.6420522,102.737262 99.5545851,102.108063 99.1539289,101.430897 Z"></path>
                                    </g>
                                    <path d="M261.461987,135.907076 C261.464808,135.907076 261.464808,135.907076 261.461987,135.907076 C261.46763,135.87886 261.473273,135.847824 261.478916,135.819608 C261.498666,135.706747 261.518417,135.596708 261.538168,135.486669 L228.890336,161.31206 C225.831806,163.732926 225.95031,169.768162 229.10195,171.960485 L240.543222,179.934106 C253.903129,165.180367 259.22452,148.132731 261.461987,135.907076 Z" id="Path" fill="#DD332F"></path>
                                    <g transform="translate(25.675851, 0.000000)">
                                        <g transform="translate(0.000000, 58.687659)">
                                            <g>
                                                <path d="M18.0662059,44.4615449 C18.0069539,44.6534084 17.9702741,44.8368074 17.9702741,45.0089202 C17.9505235,45.9738808 18.5994735,47.472109 19.547505,49.0775551 C21.1275573,51.7410719 23.5314941,54.6952055 25.0635806,55.9310322 C27.5183048,57.9089192 29.5215855,57.2120032 29.5215855,57.2120032 C29.5215855,57.2120032 30.1423204,58.2616094 31.0452074,59.7090503 C31.7449449,60.832016 32.7691574,61.8167272 33.7538686,62.8522258 C34.2504565,63.3742074 34.7385798,63.9187612 35.1618082,64.4943517 C37.5036715,67.6826716 45.3728966,67.6713856 45.3728966,67.6713856 L55.8717802,76.1331303 L51.6084604,54.2014392 C51.6084604,54.2014392 48.5950748,41.07854 45.2685002,38.3952725 C41.9419257,35.712005 40.322372,36.7954694 38.6351018,36.9788684 C37.1312306,37.1425167 34.6003253,36.6374642 32.4136457,36.4117424 C31.3047875,36.29606 30.2833965,36.2537372 29.5328716,36.4060994 C26.0962577,37.1058369 18.9465208,41.7049179 18.0662059,44.4615449 Z" id="Path" fill="#F48E6B"></path>
                                                <path d="M40.7907447,56.16804 C40.7907447,56.16804 42.3454034,53.2957306 42.6924506,50.9736179 C43.0394978,48.6515052 40.2320833,42.1337892 39.7524246,41.9391042 C39.2727658,41.7444192 31.0847088,40.7286712 29.908134,40.0994718 C29.908134,40.0994718 27.7750634,41.33812 25.9749323,40.6299179 C24.1748012,39.9217159 26.708528,52.0570824 32.9581994,54.9378564 C39.2078708,57.8129874 40.7907447,56.16804 40.7907447,56.16804 Z" id="Path" fill="#E88060"></path>
                                                <path d="M19.547505,49.0775551 C21.1275573,51.7410719 23.5314941,54.6952055 25.0635806,55.9310322 C27.5183048,57.9089192 29.5215855,57.2120032 29.5215855,57.2120032 C29.5215855,57.2120032 30.1423204,58.2616094 31.0452074,59.7090503 C32.0976352,61.4019635 33.8977663,62.7732232 35.1618082,64.4943517 C37.5036715,67.6826716 45.3728966,67.6713856 45.3728966,67.6713856 L55.8717802,76.1331303 C55.8717802,76.1331303 57.183788,76.418104 59.6300476,74.2624611 L60.4877903,73.3426449 L48.9251929,64.0231575 C48.9251929,64.0231575 44.4220436,66.3001258 39.7891044,64.0175145 C35.1505221,61.7377246 32.9638425,54.9378564 32.9638425,54.9378564 C32.9638425,54.9378564 21.1755232,51.0215838 25.5460609,45.5619385 C27.8484229,42.6698784 23.8390401,45.6409412 19.547505,49.0775551 Z" id="Path" fill="#E88060"></path>
                                                <path d="M18.0662059,44.4615449 C18.0069539,44.6534084 17.9702741,44.8368074 17.9702741,45.0089202 C17.9505235,45.9738808 18.5994735,47.472109 19.547505,49.0775551 C21.1275573,51.7410719 23.5314941,54.6952055 25.0635806,55.9310322 C27.5183048,57.9089192 29.5215855,57.2120032 29.5215855,57.2120032 C29.5215855,57.2120032 30.1423204,58.2616094 31.0452074,59.7090503 C31.7449449,60.832016 32.7691574,61.8167272 33.7538686,62.8522258 C36.2396296,54.8673184 41.1349704,48.7869383 41.1349704,48.7869383 C39.8906792,45.0456 34.8937636,39.1768341 32.4136457,36.414564 C31.3047875,36.2988816 30.2833965,36.2565587 29.5328716,36.4089209 C26.0962577,37.1058369 18.9465208,41.7049179 18.0662059,44.4615449 Z" id="Path" fill="url(#linearGradient-1)" opacity="0.25"></path>
                                                <g>
                                                    <path d="M20.9723736,0.276509164 C20.4108907,0.440157444 19.8494078,0.600984203 19.2907465,0.764632484 C19.8917307,1.14835949 20.4927149,1.52926497 21.0965206,1.91299197 C20.3967831,1.62801824 19.6942241,1.34304451 18.9944866,1.0608923 C18.4866127,1.15964557 17.9787387,1.25839885 17.4708647,1.35715212 C15.8174528,9.82453988 13.7436341,18.6474394 11.1534768,27.7524912 C10.4565608,30.2043939 9.73989422,32.6139737 9.00347696,34.9840523 C6.02394964,41.6992748 3.04442232,48.4173189 0.0677165299,55.1325414 C0.0620734858,55.8068852 0.0536089195,56.4784075 0.0479658754,57.1527512 C0.629199424,56.5856253 1.20761145,56.0184994 1.788845,55.4485519 C1.32047233,56.1906122 0.85492119,56.935494 0.386548525,57.6775544 C12.0225056,60.82073 23.6584626,63.961084 35.2915982,67.1042596 C40.6891699,48.9505866 46.0839201,30.794092 51.4814919,12.6404189 C51.368631,12.2764426 51.2529486,11.9124662 51.1400877,11.5513114 C47.5595762,10.6117445 43.9762431,9.67217769 40.3957316,8.73261084 C43.9367418,9.57060289 47.4805736,10.4114165 51.0215838,11.2494085 C50.795862,10.9080044 50.5729618,10.5666002 50.34724,10.225196 C40.5537369,6.90426453 30.7630552,3.59179761 20.9723736,0.276509164 Z" id="Path" fill="#439B55"></path>
                                                    <path d="M51.4786703,12.6375974 L33.9034093,71.7682356 C29.7924516,70.278472 25.6081344,68.8056374 21.3504576,67.349732 C14.9907468,65.17716 8.72978931,63.1371996 2.57604966,61.2213861 C4.71758492,52.4746676 6.85912018,43.7307707 9.00065543,34.9840523 C12.1833323,24.2735545 15.3688308,13.5630566 18.5515077,2.85255882 C29.5272286,6.11141682 40.5029495,9.37591787 51.4786703,12.6375974 Z" id="Path" fill="#5BB861"></path>
                                                    <polygon id="Path" fill="#5BB861" points="50.7535392 15.083857 51.1598383 13.9439621 23.4017041 4.3197503"></polygon>
                                                    <path d="M52.7963212,15.9472428 C45.8186971,32.9581994 38.7507842,54.8842475 34.2673857,71.81338 C32.4870052,71.3196136 30.6586589,70.8427764 28.7823467,70.3913328 C23.1280165,69.0313592 17.7219802,68.0579341 12.6234898,67.3723042 C11.3425188,64.1755197 10.0615477,60.9815567 8.78057671,57.7847722 C8.58871321,54.8673184 8.48713842,51.7551795 8.51535364,48.4709278 C8.56049799,43.6094453 8.88497303,39.1091175 9.36463178,35.0291966 C10.0812984,32.6196168 10.797965,30.2072154 11.5146316,27.7976355 C13.9637128,19.5616126 16.4099724,11.3227681 18.8590536,3.08674516 C26.8749978,5.27906781 35.5144984,8.20216469 44.5292615,12.1156158 C47.3959279,13.3627286 50.152555,14.6436996 52.7963212,15.9472428 Z" id="Path" fill="#90CD95"></path>
                                                    <circle id="Oval" fill="#3AAF41" transform="translate(31.033661, 21.974696) rotate(-45.000000) translate(-31.033661, -21.974696) " cx="31.0336609" cy="21.9746965" r="7.73936084"></circle>
                                                    <path d="M32.4870052,15.1318229 C37.0324773,16.6639094 39.0583301,23.2070191 36.2227005,26.9652865 C34.3887111,29.3974385 30.7799844,30.3200763 27.8851027,29.1858244 C23.7572159,27.5690922 21.7285415,22.0135153 24.0788694,18.1959959 C25.8028194,15.397046 29.5102994,14.1301826 32.4870052,15.1318229 Z" id="Path" fill="#5BB861"></path>
                                                    <path d="M42.365154,44.8480935 C42.2268994,44.8226998 42.0914664,44.8001276 41.9532118,44.7747339 L9.00065543,34.9812307 C8.98090478,35.1138423 8.96397565,35.2464538 8.94422499,35.3762438 C12.4936998,36.6346427 16.0431745,37.8958631 19.5926493,39.1542619 C26.9116776,41.7500622 34.2278843,44.3458625 41.5469126,46.9416628 C41.8206003,46.2447469 42.0942879,45.5478309 42.365154,44.8480935 Z" id="Path" fill="#7FB980"></path>
                                                    <path d="M9.00065543,34.9812307 C20.120274,38.2711255 31.242714,41.5581987 42.3623325,44.8480935 C42.9746028,43.067713 43.5896946,41.2901541 44.2019649,39.5097737 C33.1839212,35.5906795 22.1658775,31.6687638 11.1478337,27.7496697 L9.00065543,34.9812307 Z" id="Path" fill="#FFFFFF"></path>
                                                    <path d="M8.86522237,57.8073444 C10.5637787,59.1475674 12.2595134,60.4877903 13.9580697,61.8280133 C13.5404845,63.6845749 13.1228992,65.5383149 12.7081354,67.3948764 C11.9547891,66.1900865 11.1478337,64.7031443 10.4311671,62.939693 C9.65242703,61.0351656 9.16994676,59.2801789 8.86522237,57.8073444 Z" id="Path" fill="#A5DEA6"></path>
                                                    <polygon id="Path" fill="#7FB980" points="14.4123348 61.653079 8.86522237 57.8073444 13.9580697 61.8308349 12.7081354 67.3976979"></polygon>
                                                </g>
                                                <path d="M38.2993407,57.5816226 C37.7039996,55.9902842 37.0099051,54.7854942 36.4879235,53.9813604 C33.5732912,49.5036049 29.713449,47.8981588 27.7919925,47.1335263 C26.0934362,46.4591826 25.4021633,46.4732902 24.9676489,46.7949437 C23.8475046,47.6216497 24.5641712,50.3444185 24.8265728,51.1372662 C25.4529507,53.0107568 27.0132524,55.0394312 28.2462575,56.4417277 C29.2478979,57.5816226 29.7501288,59.0798508 29.6400894,60.5950082 C29.4623336,63.0553754 29.5046564,66.8644302 31.0621366,69.3445482 C31.8041969,70.5267659 33.0597742,71.1616084 34.4225694,71.2518971 C35.5652858,66.9518974 36.8716505,62.3415304 38.2993407,57.5816226 Z" id="Path" fill="#7FB980"></path>
                                                <path d="M25.4698798,51.3122005 C27.2756539,53.7669248 31.6631208,55.7560978 31.6631208,55.7560978 C31.6631208,55.7560978 32.4616115,62.2653493 35.5822149,64.8357559 C37.0494064,66.0433673 39.2191569,65.7668582 40.8048523,64.4492073 C42.5824112,62.9735513 43.6263744,60.1858875 42.1140386,56.7295229 C42.1140386,56.7295229 37.830968,51.5858882 36.1267687,50.2146285 C34.7414014,49.0973057 29.8517036,47.3818203 27.0612183,46.2419254 C25.9551816,45.7904818 24.6713891,46.4253243 24.4372027,47.5990775 C24.2453392,48.5668596 24.3864153,49.8365445 25.4698798,51.3122005 Z" id="Path" fill="#FF8B66"></path>
                                                <path d="M25.4698798,51.3122005 C27.2756539,53.7669248 31.6631208,55.7560978 31.6631208,55.7560978 C31.6631208,55.7560978 32.4616115,62.2653493 35.5822149,64.8357559 C37.0494064,66.0433673 39.2191569,65.7668582 40.8048523,64.4492073 C40.4662697,64.3278819 40.1248655,64.1839843 39.7834613,64.0175145 C35.144879,61.7377246 32.9581994,54.9378564 32.9581994,54.9378564 C27.924604,53.2957306 24.4879901,50.6152846 24.5669927,47.9940906 C24.5782788,47.6075421 24.6685675,47.1843137 24.8858247,46.7215841 C24.7137119,46.9783426 24.4964547,47.3705342 24.3948799,47.8840512 C24.3299849,48.2028832 24.1155492,49.4669251 25.4698798,51.3122005 Z" id="Path" fill="#E88060"></path>
                                            </g>
                                            <path d="M51.5238147,53.8572135 C64.4294567,64.6890367 77.3322772,75.52086 90.2379192,86.3526832 C88.4406096,89.8880504 85.8504523,94.1513703 82.1373293,98.5134434 C79.6684974,101.41679 77.1883795,103.786868 74.9339834,105.697039 C69.1103618,100.093496 65.0360839,95.0203991 62.355638,91.3524204 C58.3236829,85.8391662 55.64888,80.9156102 49.0578044,72.5582618 C47.4185001,70.4788 46.0190251,68.7999944 45.0766367,67.6826716 C46.1854949,67.0280785 47.6329357,65.9671862 48.8997992,64.3024882 C52.1191559,60.0730266 51.687463,55.1889719 51.5238147,53.8572135 Z" id="Path" fill="#F48E6B"></path>
                                        </g>
                                        <path d="M109.082865,73.9577368 C108.727353,74.1919231 108.270267,74.505112 107.753928,74.8973036 C96.290084,83.5480903 96.3634436,98.6404119 90.026305,132.439425 C89.4055701,135.74907 88.8694809,138.45491 88.5224337,140.187325 C84.9024209,138.28844 81.2824081,136.386734 77.6623952,134.48785 C77.0275528,139.888243 75.2810306,147.100054 70.473157,153.97046 C69.6746662,155.110355 68.8507818,156.159961 68.0156113,157.127743 C67.8829997,158.027809 67.8604275,159.280564 68.5714511,160.301955 C69.2288657,161.244344 70.1035376,161.396706 71.3788656,162.20084 C72.9560964,163.194016 73.6755845,164.260551 74.5248627,165.242441 C74.5756501,165.301693 74.6123299,165.344015 74.629259,165.363766 C81.1526181,172.911338 86.5896911,175.041587 86.5896911,175.041587 C88.5308983,175.803398 92.9324727,177.530169 96.4650184,175.574854 C96.4650184,175.574854 98.7673804,174.302348 100.093496,171.167637 C103.879978,162.212126 108.622957,81.8749277 109.082865,73.9577368 Z" id="Path" fill="#112D38"></path>
                                        <g transform="translate(93.956685, 0.000000)">
                                            <g>
                                                <path d="M0.660236167,17.7332663 C-0.107217839,19.6039354 -0.0310367429,20.9751951 0.20314959,21.9006544 C1.37408125,26.5335936 8.95551108,29.7388427 19.1242767,29.2620055 C19.9989485,25.9636462 20.8736203,22.6681084 21.7482922,19.3697491 C21.7313631,18.7998016 21.6213237,17.9618096 21.1275573,17.245143 C20.2190272,15.9303137 18.5458646,15.7920591 17.3354317,15.7779515 C12.2764426,15.7130565 1.48976366,17.5865471 0.660236167,17.7332663 Z" id="Path" fill="#D32D2D"></path>
                                                <path d="M19.9199459,25.0043287 C17.88845,33.8751941 18.2496048,40.8697473 18.8280168,45.2092483 C19.9679118,53.7725678 22.4847095,56.097502 24.1945518,57.0652841 C25.0635806,57.5562289 25.8790005,57.7875937 26.4574125,57.9060976 C26.5618089,60.8348376 26.6662052,63.7635775 26.7706015,66.6923174 C25.5065596,70.4929076 24.1804442,75.8933009 24.0421896,82.4476967 C23.8559692,91.301633 25.9213233,98.3667243 27.5719138,102.692118 C28.7372024,102.971448 30.2975041,103.355175 32.1625302,103.355175 C32.1625302,103.355175 33.0033438,103.40032 33.8328713,103.386212 C36.2001283,103.352354 47.212529,92.4556355 60.2451394,75.6732222 C58.0641029,73.8392328 55.454195,71.1587869 53.292909,67.4287347 C47.3705342,57.2063602 49.1875944,46.6284739 49.9127256,43.2595765 C50.9397596,42.8871356 53.4593788,41.8121357 55.2905467,39.1542619 C57.4744048,35.9885141 57.1978956,32.7352992 57.0822132,31.3837901 C56.9101003,29.3861525 56.3768327,28.9629241 56.1398248,28.821848 C55.2200086,28.2660082 53.6286702,28.8077404 52.1247989,30.1790002 C52.0937622,24.1606936 52.0655469,18.1395655 52.0345102,12.1212589 C49.7293267,11.4017707 42.8024899,9.57342442 34.7667951,12.4034111 C25.3739481,15.715878 20.9780167,23.1026228 19.9199459,25.0043287 Z" id="Path" fill="#F48E6B"></path>
                                                <g transform="translate(18.904198, 21.725720)" fill="#152934">
                                                    <path d="M22.5185677,4.9715219 C22.4057068,4.95741429 22.298489,4.91226994 22.2025572,4.83326732 C21.0654838,3.89652199 19.7111532,3.26732257 18.2891061,3.01338558 C17.1294605,2.80741447 15.9415998,2.84127273 14.7622035,3.1177819 C14.3925841,3.20524908 14.0398939,2.95977666 13.9778204,2.56758509 C13.9157469,2.17821505 14.1640408,1.79166652 14.5336602,1.70419934 C15.8879908,1.38818886 17.2479645,1.34586603 18.5797229,1.58569541 C20.2133842,1.87913371 21.7652213,2.59862184 23.0687645,3.67080023 C23.3593813,3.9106296 23.3988826,4.36207314 23.1618748,4.68372665 C22.9982265,4.90098385 22.7499325,5.00255865 22.5185677,4.9715219 Z" id="Path"></path>
                                                    <path d="M0.451443533,2.89206013 C0.29908134,2.86384491 0.160826759,2.73123337 0.0902887066,2.51397617 C-0.0253936987,2.16128591 0.0790026182,1.72394999 0.324475039,1.53490801 C1.39101039,0.713845086 2.57887118,0.251115465 3.75826741,0.197506546 C4.91509146,0.143897626 6.07473704,0.482480276 7.10741412,1.17657471 C7.35006502,1.34022299 7.44599677,1.76627282 7.3218498,2.13307069 C7.19770283,2.49704704 6.90426453,2.66351684 6.66161363,2.49986856 C5.75872656,1.89324132 4.74862166,1.5969815 3.73851676,1.64494737 C2.43779508,1.70702086 1.39101039,2.31364811 0.742060307,2.81305751 C0.6517716,2.88641709 0.547375283,2.90898926 0.451443533,2.89206013 Z" id="Path"></path>
                                                    <path d="M6.37381838,19.9001952 C6.34278164,19.8973737 6.31174489,19.8889091 6.28070815,19.8776231 C5.03641691,19.3894997 4.23510464,18.6700116 3.90216504,17.7389093 C3.4253278,16.4071509 4.04606266,15.1120723 4.90380537,13.3204057 C5.56968459,11.9350384 6.39639055,10.2110884 7.1045926,7.79304398 C7.46574742,6.56003884 7.73943506,5.22545889 7.2964561,3.82316242 C7.1045926,3.21653517 6.79422517,2.65505228 6.37099686,2.14999982 C6.21863466,1.96942241 6.24120684,1.68162716 6.41896273,1.50951431 C6.59671862,1.33740147 6.86758474,1.34586603 7.01994693,1.52926497 C7.5137133,2.11896308 7.88051117,2.78202077 8.10623294,3.49868738 C8.69593105,5.366535 8.16830642,7.16102304 7.91719096,8.02440879 C7.18641674,10.5186343 6.33996011,12.2820856 5.65997329,13.7013112 C4.84737493,15.397046 4.35643009,16.4212585 4.70065578,17.3833975 C4.94894973,18.0746704 5.59225676,18.6276888 6.61082623,19.0311664 C6.82808343,19.1158121 6.92965823,19.3753921 6.83936952,19.6095785 C6.7603669,19.807085 6.56568188,19.9255889 6.37381838,19.9001952 Z" id="Path"></path>
                                                    <path d="M9.37027483,27.1148272 C8.39967123,27.2305096 7.42060307,27.2728324 6.43871339,27.2389742 C6.22992075,27.2333311 6.06345095,27.021717 6.06623713,26.7706015 C6.07191552,26.519486 6.24402836,26.3219795 6.452821,26.3276225 C8.51817516,26.3953391 10.5722432,26.1244729 12.5614163,25.5178457 C14.1301826,25.0410085 15.656626,24.3525571 17.1040668,23.4750637 C17.2902873,23.3622028 17.5188306,23.4524915 17.6147623,23.6753918 C17.7106941,23.9011135 17.6373345,24.1748012 17.4511141,24.2876621 C15.9557074,25.1961922 14.375655,25.9043942 12.7532798,26.4009821 C11.6444216,26.7395647 10.5129913,26.9765726 9.37027483,27.1148272 Z" id="Path"></path>
                                                    <ellipse id="Oval" transform="translate(2.425332, 8.480624) rotate(-86.669204) translate(-2.425332, -8.480624) " cx="2.42533241" cy="8.48062352" rx="2.92306545" ry="1.38253096"></ellipse>
                                                    <ellipse id="Oval" transform="translate(16.158661, 11.043649) rotate(-83.759776) translate(-16.158661, -11.043649) " cx="16.1586614" cy="11.0436488" rx="2.93163546" ry="1.91021868"></ellipse>
                                                </g>
                                                <path d="M35.965942,56.7746673 C39.4589863,55.6263078 41.9898916,53.9108224 43.5276211,52.6806388 C43.0197471,54.373552 41.5017683,58.594549 37.3484878,62.1158086 C33.0795249,65.7329999 28.5171237,66.4919893 26.773423,66.6923174 C26.6690267,63.7635775 26.5646304,60.8348376 26.4602341,57.9060976 C28.5227667,58.0725674 31.9819528,58.0838535 35.965942,56.7746673 Z" id="Path" fill="#E88060"></path>
                                                <path d="M19.2766388,28.0967169 C19.4910745,27.0640398 19.7055102,26.0341842 19.9199459,25.0015071 C26.3727669,25.8705359 30.4047219,24.7165334 32.9299842,23.444027 C39.1994063,20.2811007 42.3341173,18.7010483 42.554196,18.4894342 C42.7968469,18.2552479 43.5840516,17.4736862 44.3938284,17.640156 C45.2910724,17.823555 46.0387758,19.1383843 46.0923847,20.3290666 C46.2221747,23.2888432 41.9898916,24.1889088 41.845994,27.2643679 C41.7754559,28.7654176 42.7545241,29.2337903 43.705377,31.2906799 C44.5631197,33.1472414 45.2600357,35.9998002 44.3938284,40.2856923 C45.4801144,39.9555742 46.5635789,39.6254561 47.6498649,39.295338 C47.7768334,38.4009155 48.4652848,33.8780156 50.8043266,31.2596431 C51.1400877,30.8843807 51.7326073,30.2326091 52.7173185,29.6880553 C54.0885783,28.9290659 55.4118721,28.8246696 56.1398248,28.8246696 C59.9206644,19.2653528 56.8988143,14.3276891 56.5630531,13.2555107 C56.1595755,11.9547891 21.0400901,7.00019628 19.9058383,8.30091796 C19.2230299,9.08812262 18.6305103,27.0809689 19.2766388,28.0967169 Z" id="Path" fill="#152934"></path>
                                                <path d="M16.3817572,14.1612193 C16.9009173,11.8673219 18.023883,8.29527491 20.6845784,4.70912035 C21.401245,3.7441598 22.2223079,2.78484229 22.7076097,2.32775572 C28.6553782,-3.28143018 53.1349038,1.25557733 57.5985517,15.8569541 C58.2164651,17.8828069 59.2124624,22.5862842 56.4671214,29.2676485 C53.8036045,26.2711921 50.0820169,22.7809693 45.1415318,19.8578724 C33.2008503,12.7899596 21.6213237,13.4614818 16.3817572,14.1612193 Z" id="Path" fill="#E03631"></path>
                                                <path d="M16.55387,13.4501958 C11.2550516,14.8778859 5.95623311,16.3055761 0.657414645,17.7304447 C4.42414662,17.4906154 7.39520937,17.8630563 9.33359504,18.2157465 C16.8614159,19.5926493 19.6124,22.6737514 27.8004571,23.5258511 C28.2406145,23.5709955 28.6723074,23.6104968 29.1322155,23.6415335 C29.6852338,23.6782133 30.2100369,23.7007855 30.7179109,23.7148931 C30.7179109,23.7148931 31.9593806,23.7459298 33.2544592,23.6979639 C34.761152,23.644355 40.9826082,23.2916648 49.4471744,22.7499325 C48.9026207,22.304132 48.1041299,21.6692896 47.1024896,20.9610875 C47.1024896,20.9610875 42.4328706,17.6627282 36.5923199,15.6396969 C27.9415332,12.6375974 18.9352347,13.2498677 16.55387,13.4501958 Z" id="Path" fill="#E03631"></path>
                                            </g>
                                            <g transform="translate(1.410761, 62.073486)" id="Path">
                                                <path d="M82.3348358,8.4081358 C81.395269,8.06955315 72.6880518,8.41095732 68.7689576,8.48713842 C63.577357,8.58589169 60.0419899,8.21062925 59.1193521,8.16830642 C55.3554417,7.9990151 48.0787362,11.2381224 32.7014409,26.0313627 C32.3685013,26.7706015 31.7788032,27.8371368 30.7517691,28.875457 C29.3269005,30.3172547 27.7835279,30.9690263 26.9201422,31.2624646 C26.7508508,30.5345119 26.5392367,29.7755225 26.2768351,28.9939609 C25.1510478,25.6504572 23.4694207,23.0433708 21.9288696,21.1332004 C21.7116124,18.2608909 21.4971767,15.3914029 21.2799195,12.5190935 C17.5075445,10.9080044 15.0443557,11.4017707 13.7125973,11.8814295 C-0.423228312,16.9799199 -0.0902887066,61.404785 0.0902887066,85.9830639 C0.172112847,96.992643 0.846456624,109.339624 0.846456624,109.339624 C0.888779455,110.098613 0.931102286,110.846316 0.973425118,111.588377 C31.8239475,111.213114 56.7774888,112.070857 77.0698756,113.278468 C76.9400856,89.3039953 79.9562927,63.2049161 79.9224344,30.3567561 C79.9280775,26.9568219 87.9694154,10.4339887 82.3348358,8.4081358 Z" fill="#193644"></path>
                                                <path d="M45.3728966,35.3085273 C44.1793927,31.750588 43.0310332,27.6452733 42.1337892,23.0461923 C41.1293274,17.8969146 40.641204,13.1849727 40.446519,9.0853011 C36.1549839,16.4353661 31.8606273,23.7826096 27.5690922,31.1326746 C25.7097092,24.0026883 23.8475046,16.8698805 21.9881216,9.73989422 C19.2314945,10.4537393 16.4748674,11.1675844 13.7210619,11.8814295 C14.3361537,12.5078074 15.3716523,13.6025579 16.542584,15.0556418 C19.8409433,19.1581349 20.8905495,22.0106937 24.9168615,28.6074124 C25.4868089,29.5413362 26.3473732,30.9267035 27.4393022,32.5970446 C32.8989474,31.0141707 38.3614142,29.4312968 43.8210594,27.8456014 C45.7114792,26.4263758 47.6047205,25.0043287 49.4951403,23.5851031 L63.9187612,8.1654849 L45.3728966,35.3085273 Z" fill="#112D38"></path>
                                                <path d="M49.5092479,0.205971112 C48.817975,1.35150908 47.7796549,2.80459295 46.2588545,4.23792616 C44.2330016,6.14527509 42.1789336,7.24284718 40.7484219,7.86076051 C38.2400887,11.1647629 35.5709289,15.1092507 33.0118083,19.7083317 C30.7461261,23.7797881 28.9657457,27.6424518 27.5634492,31.1354961 C27.2671894,28.2406145 26.9850372,25.3175176 26.7226356,22.3662055 C26.1837249,16.353542 24.3356279,15.8541326 25.3598405,4.62165317 C23.70925,5.83208614 21.979657,7.05662672 20.1682398,8.2811673 C18.3511796,9.51135093 16.5679777,10.6653535 14.824277,11.7488179 C15.5663373,12.3103008 16.6215866,13.1793296 17.7304447,14.3954057 C20.0497359,16.9347755 21.1219143,19.3556415 21.9316911,21.1360219 C23.2465204,24.028082 24.9648274,27.6622025 27.4308377,32.5998661 C30.7179109,31.2568216 34.6031468,29.2450764 38.5194194,26.1865464 C39.8539994,25.1425833 41.0559678,24.087334 42.1281462,23.0518354 C43.1495372,25.9664677 44.1737497,28.8811 45.1951407,31.7957323 C47.8276208,27.8427799 50.8297203,23.6669272 54.2465835,19.3697491 C57.5251922,15.2446838 60.7784071,11.5174531 63.9102966,8.17112794 C62.0650212,6.91837214 60.0391683,5.64586568 57.8383811,4.39310988 C54.9209273,2.72841185 52.1191559,1.35150908 49.5092479,0.205971112 Z" fill="#193644"></path>
                                                <path d="M42.1309677,23.0461923 C41.5694848,18.3935024 41.0051804,13.7408125 40.4436975,9.0853011 C39.803212,14.7847757 39.1627265,20.4814288 38.522241,26.1809034 C39.7242094,25.1369402 40.9289993,24.092977 42.1309677,23.0461923 Z" fill="#112D38"></path>
                                                <path d="M75.656293,8.86522237 C85.1986807,5.74744048 95.7737455,13.8564949 113.617051,27.9048534 C136.632207,46.0246682 135.624923,52.2912687 139.518624,55.6629876 C139.775382,55.8858878 140.692377,56.6476988 140.616196,57.5618719 C140.5118,58.7948771 138.708847,58.9669899 138.367443,60.2197457 C137.907535,61.9013729 140.714949,63.19363 140.49487,64.6664645 C140.221183,66.5032754 135.444346,67.2566218 132.845724,67.5839184 C124.691525,68.6109524 115.704977,69.7423828 113.619873,65.744286 C112.319151,63.2500605 114.020529,63.0835907 113.428009,59.9658088 C112.192182,53.4734865 99.1398213,50.3585261 74.5530779,41.1998654 C69.9088526,39.4702724 66.9208607,38.2288027 65.0106902,35.1307714 C60.9307693,28.5171237 63.8595092,16.8416653 71.0741412,11.3368757 C71.7710571,10.8064296 73.3567526,9.61574725 75.656293,8.86522237 Z" fill="#193644"></path>
                                            </g>
                                            <g transform="translate(39.783461, 76.745401)" id="Path">
                                                <path d="M68.7266348,19.6039354 L76.9824084,88.6635098 C77.1009124,89.6510426 76.4068179,90.5539296 75.4221067,90.6921842 L25.8902866,97.6613437 C25.114368,97.7713831 24.3243418,97.6415931 23.6217829,97.2917244 L0.688451387,85.875846 C0.349868738,85.7065547 0.163648281,85.3397568 0.225721766,84.9673159 L11.7939623,15.5635158 C11.9914688,14.375655 13.0636472,13.5348414 14.2656156,13.6251301 L66.5879211,17.5583319 C67.6996008,17.640156 68.5940233,18.4978988 68.7266348,19.6039354 Z" fill="#112D38"></path>
                                                <path d="M54.5710585,21.3645652 C54.6218459,20.3572818 54.6077383,19.3556415 54.5597725,18.3568227 C54.5118066,17.3580038 54.4243394,16.3620065 54.2860848,15.3744738 C54.0095757,13.4022299 53.541203,11.4525581 52.779392,9.58753203 C52.0260456,7.72814898 50.9736179,5.92801789 49.3709934,4.44389728 C48.5753241,3.69619392 47.6470434,3.05570841 46.5494713,2.53372683 C45.9795238,2.25721766 45.4377916,2.02867438 44.9186315,1.91017045 C44.3966499,1.79166652 43.9423849,1.78602348 43.4768337,1.89324132 C42.5457314,2.10203395 41.5694848,2.79048534 40.8330675,3.59179761 C40.635561,3.78366111 40.4690912,4.00373983 40.2885138,4.20971094 C40.1248655,4.42978967 39.9471096,4.63576078 39.7975689,4.86148254 C39.6395637,5.08156127 39.48438,5.30446151 39.3461254,5.5330048 C39.1965847,5.75872656 39.0611517,5.99009138 38.9285401,6.22145619 C37.8535402,8.07519619 36.9957975,10.0135819 36.1578055,11.9604321 C35.3310995,13.9129254 34.5833961,15.8908124 33.8554434,17.8799854 C33.1190262,19.8691585 32.4305748,21.8724392 31.6207979,23.8841844 C31.5982258,23.9434364 31.5079371,23.9829377 31.4204699,23.9716516 C31.3499318,23.963187 31.301966,23.9265072 31.2991444,23.8785414 C31.1891051,21.849867 31.3330027,19.8099065 31.6123334,17.7671245 C31.9085932,15.7243426 32.3685013,13.6759175 33.0400236,11.6331355 C33.7284749,9.59035355 34.6370051,7.55039309 36.0110863,5.5583985 C36.1860207,5.31010455 36.360955,5.06181061 36.5528185,4.81633819 C36.7362175,4.56804425 36.9365455,4.32539335 37.1425167,4.07992093 C37.3372017,3.83444851 37.5742095,3.59461913 37.7886452,3.35196823 C38.0312961,3.11213885 38.2513748,2.87230948 38.522241,2.63530162 C39.0329365,2.16128591 39.619813,1.70137781 40.3336581,1.27532798 C41.0418602,0.85492119 41.9137105,0.459908099 42.9576737,0.265223075 C43.2116107,0.211614156 43.4852983,0.191863501 43.7476998,0.160826759 C44.0157444,0.141076104 44.2809675,0.141076104 44.5433691,0.152362192 C45.0653507,0.177755891 45.5506525,0.265223075 45.9823453,0.380905481 C46.8457311,0.617913335 47.5031457,0.953674463 48.0872008,1.26686341 C48.3749961,1.42204713 48.6797204,1.61108911 48.9703372,1.78038043 C49.2581325,1.95813632 49.514891,2.15564287 49.7857571,2.34468485 C50.0425156,2.53936987 50.2767019,2.74816251 50.5193528,2.94849057 C50.7478961,3.15728321 50.9566888,3.37171889 51.1767675,3.58333304 C52.8104288,5.32703369 53.7246019,7.28234849 54.3368722,9.2517709 C54.9265703,11.2324794 55.1917934,13.2498677 55.2679745,15.2700775 C55.3413341,17.2931088 55.2256517,19.3246047 54.887069,21.3561006 C54.8786045,21.4153526 54.7967803,21.4604969 54.7093131,21.4604969 C54.6303105,21.4633185 54.568237,21.4181741 54.5710585,21.3645652 Z" fill="#112D38"></path>
                                                <path d="M65.8571469,21.3645652 C65.9079343,20.3572818 65.8938266,19.3556415 65.8458608,18.3568227 C65.7978949,17.3580038 65.7104277,16.3620065 65.5721731,15.3744738 C65.295664,13.4022299 64.8272913,11.4525581 64.0654803,9.58753203 C63.3121339,7.72814898 62.2597062,5.92801789 60.6570817,4.44389728 C59.8614124,3.69619392 58.9331317,3.05570841 57.8355596,2.53372683 C57.2656121,2.25721766 56.7238799,2.02867438 56.2047198,1.91017045 C55.6827382,1.79166652 55.2284732,1.78602348 54.762922,1.89324132 C53.8318198,2.10203395 52.8555731,2.79048534 52.1191559,3.59179761 C51.9216493,3.78366111 51.7551795,4.00373983 51.5746021,4.20971094 C51.4109538,4.42978967 51.2331979,4.63576078 51.0836573,4.86148254 C50.925652,5.08156127 50.7704683,5.30446151 50.6322137,5.5330048 C50.4826731,5.75872656 50.34724,5.99009138 50.2146285,6.22145619 C49.1396285,8.07519619 48.2818858,10.0135819 47.4438938,11.9604321 C46.6171878,13.9129254 45.8694845,15.8908124 45.1415318,17.8799854 C44.4051145,19.8691585 43.7166631,21.8724392 42.9068863,23.8841844 C42.8843141,23.9434364 42.7940254,23.9829377 42.7065582,23.9716516 C42.6360201,23.963187 42.5880543,23.9265072 42.5852327,23.8785414 C42.4751934,21.849867 42.619091,19.8099065 42.8984217,17.7671245 C43.1946815,15.7243426 43.6545896,13.6759175 44.3261119,11.6331355 C45.0145633,9.59035355 45.9230934,7.55039309 47.2971746,5.5583985 C47.472109,5.31010455 47.6470434,5.06181061 47.8389069,4.81633819 C48.0223058,4.56804425 48.2226339,4.32539335 48.428605,4.07992093 C48.62329,3.83444851 48.8602979,3.59461913 49.0747335,3.35196823 C49.3173844,3.11213885 49.5374632,2.87230948 49.8083293,2.63530162 C50.3190248,2.16128591 50.9059014,1.70137781 51.6197464,1.27532798 C52.3279485,0.85492119 53.1997988,0.459908099 54.243762,0.265223075 C54.497699,0.211614156 54.7713866,0.191863501 55.0337882,0.160826759 C55.3018328,0.141076104 55.5670558,0.141076104 55.8294574,0.152362192 C56.351439,0.177755891 56.8367408,0.265223075 57.2684337,0.380905481 C58.1318194,0.617913335 58.7892341,0.953674463 59.3732891,1.26686341 C59.6610844,1.42204713 59.9658088,1.61108911 60.2564255,1.78038043 C60.5442208,1.95813632 60.8009793,2.15564287 61.0718454,2.34468485 C61.3286039,2.53936987 61.5627903,2.74816251 61.8054412,2.94849057 C62.0339844,3.15728321 62.2427771,3.37171889 62.4628558,3.58333304 C64.0965171,5.32703369 65.0106902,7.28234849 65.6229605,9.2517709 C66.2126586,11.2324794 66.4778817,13.2498677 66.5540628,15.2700775 C66.6274224,17.2931088 66.51174,19.3246047 66.1731573,21.3561006 C66.1646928,21.4153526 66.0828686,21.4604969 65.9954014,21.4604969 C65.9163988,21.4633185 65.8543253,21.4181741 65.8571469,21.3645652 Z" fill="#112D38"></path>
                                                <path d="M55.3808354,21.2319536 C55.4288013,20.2331348 55.4118721,19.2371375 55.3610847,18.2439618 C55.3131189,17.250786 55.2256517,16.2632533 55.0873971,15.2841851 C54.8137094,13.3260488 54.3566229,11.3876631 53.6145626,9.53674463 C52.8809668,7.68864767 51.8595758,5.89980267 50.3077387,4.4213251 C49.5374632,3.67644327 48.6373976,3.03877928 47.5765053,2.5167977 C47.0263085,2.24028853 46.5015054,2.01174524 45.9992745,1.89324132 C45.494222,1.77191587 45.0540646,1.76627282 44.6082641,1.87349066 C43.7110201,2.07946177 42.7686317,2.75944859 42.0576081,3.5522963 C41.8685661,3.7441598 41.7077394,3.95859548 41.532805,4.16174507 C41.3776213,4.37900227 41.2026869,4.58497338 41.0587893,4.80787362 C40.9064271,5.02795235 40.759708,5.24803107 40.6242749,5.47375283 C40.4803773,5.69665308 40.3505873,5.92519637 40.2236188,6.15656118 C39.1909417,7.99337205 38.3670572,9.91482859 37.5629234,11.8475712 C36.7700757,13.7831354 36.0534091,15.7440932 35.3536717,17.7163371 C34.6482911,19.6885811 33.988055,21.6749326 33.2149579,23.6697487 C33.1923857,23.7290007 33.1077401,23.7656805 33.0230944,23.7572159 C32.9553779,23.7487513 32.9102335,23.7120716 32.907412,23.6669272 C32.7945511,21.6523604 32.9271627,19.6293291 33.1923857,17.6006547 C33.474538,15.5748019 33.9118739,13.543306 34.5551809,11.5146316 C35.2125956,9.48877875 36.0872674,7.46574742 37.4077397,5.49350349 C37.5742095,5.24803107 37.7435009,5.00255865 37.9297213,4.75708623 C38.1046557,4.51161381 38.2993407,4.26896291 38.4968473,4.02631201 C38.6858892,3.78366111 38.9144325,3.54383173 39.1204036,3.30400236 C39.35459,3.0669945 39.5662041,2.82716512 39.8257842,2.59580031 C40.316729,2.12742765 40.8838549,1.67034107 41.5723063,1.2527558 C42.2551147,0.837992058 43.0959282,0.448622011 44.1060332,0.256758509 C44.3515056,0.20314959 44.6167286,0.186220457 44.8706656,0.158005236 C45.1274241,0.141076104 45.3841827,0.138254582 45.6381196,0.14954067 C46.1431721,0.174934369 46.6115448,0.262401553 47.0263085,0.380905481 C47.8586575,0.617913335 48.499143,0.956495985 49.0634474,1.26404189 C49.3427781,1.41922561 49.6362164,1.60544606 49.9183686,1.77755891 C50.1976993,1.9553148 50.4459933,2.15282135 50.7083948,2.3390418 C50.9566888,2.53372683 51.1824105,2.73969794 51.4194184,2.94002601 C51.6394971,3.14881864 51.8454682,3.3604328 52.0570824,3.57204695 C53.6399563,5.30728303 54.5287357,7.25131174 55.1268984,9.20944807 C55.7024889,11.176049 55.9648905,13.1793296 56.0438931,15.1882534 C56.1200742,17.1971771 56.0156778,19.2117438 55.6912028,21.2263106 C55.6827382,21.2855626 55.6065571,21.3307069 55.51909,21.3307069 C55.4372658,21.3307069 55.3780139,21.2855626 55.3808354,21.2319536 Z" fill="#FFFFFF"></path>
                                                <path d="M71.5481569,17.9110222 L79.8039305,86.9705966 C79.9224344,87.9581293 79.22834,88.8610164 78.2436288,88.999271 L28.7118087,95.9684305 C27.9358901,96.0784699 27.1458639,95.9486798 26.4433049,95.5988111 L3.50997347,84.1829328 C3.17139082,84.0136414 2.98517036,83.6468436 3.04724385,83.2744027 L14.6154844,13.8706025 C14.8129909,12.6827417 15.8851693,11.8419282 17.0871377,11.9322169 L69.4094432,15.8654187 C70.5211229,15.9472428 71.4155454,16.8049855 71.5481569,17.9110222 Z" fill="#FFD651"></path>
                                                <path d="M30.0012443,12.9028205 L27.5436985,95.3223019 C27.4844466,96.1151496 27.1317563,95.9430368 26.7903521,95.7737455 L3.39429106,84.1265023 C3.2334643,84.0446782 3.25321496,83.8076703 3.4253278,83.7568829 L18.7292636,79.1098361 L23.4299194,12.4118756 L30.0012443,12.9028205 Z" fill="#F8E18C"></path>
                                                <path d="M18.7292636,79.104193 L27.5211264,96.1349003 L3.34914671,84.1011086 C3.20242756,84.0277491 3.22217822,83.8133134 3.37736193,83.768169 L18.7292636,79.104193 Z" fill="#FFB10F"></path>
                                                <path d="M66.1026193,21.2319536 C66.1505852,20.2331348 66.133656,19.2371375 66.0828686,18.2439618 C66.0349028,17.250786 65.9474356,16.2632533 65.809181,15.2841851 C65.5354933,13.3260488 65.0784068,11.3876631 64.3363465,9.53674463 C63.6027507,7.68864767 62.5813597,5.89980267 61.0295226,4.4213251 C60.2592471,3.67644327 59.3591815,3.03877928 58.2982892,2.5167977 C57.7480924,2.24028853 57.2232893,2.01174524 56.7210584,1.89324132 C56.2160059,1.77191587 55.7758485,1.76627282 55.330048,1.87349066 C54.432804,2.07946177 53.4904156,2.75944859 52.779392,3.5522963 C52.59035,3.7441598 52.4295233,3.95859548 52.2545889,4.16174507 C52.0994052,4.37900227 51.9244708,4.58497338 51.7805732,4.80787362 C51.628211,5.02795235 51.4814919,5.24803107 51.3460588,5.47375283 C51.2021612,5.69665308 51.0723712,5.92519637 50.9454027,6.15656118 C49.9127256,7.99337205 49.0888411,9.91482859 48.2847074,11.8475712 C47.4918596,13.7831354 46.775193,15.7440932 46.0754556,17.7163371 C45.370075,19.6885811 44.7098389,21.6749326 43.9367418,23.6697487 C43.9141696,23.7290007 43.829524,23.7656805 43.7448783,23.7572159 C43.6771618,23.7487513 43.6320174,23.7120716 43.6291959,23.6669272 C43.516335,21.6523604 43.6489466,19.6293291 43.9141696,17.6006547 C44.1963219,15.5748019 44.6336578,13.543306 45.2769648,11.5146316 C45.9343795,9.48877875 46.8090513,7.46574742 48.1295236,5.49350349 C48.2959934,5.24803107 48.4652848,5.00255865 48.6515052,4.75708623 C48.8264396,4.51161381 49.0211246,4.26896291 49.2186312,4.02631201 C49.4076731,3.78366111 49.6362164,3.54383173 49.8421875,3.30400236 C50.0763739,3.0669945 50.287988,2.82716512 50.5475681,2.59580031 C51.0385129,2.12742765 51.6056388,1.67034107 52.2940902,1.2527558 C52.9768986,0.837992058 53.8177121,0.448622011 54.8278171,0.256758509 C55.0732895,0.20314959 55.3385125,0.186220457 55.5924495,0.158005236 C55.849208,0.141076104 56.1059666,0.138254582 56.3599035,0.14954067 C56.864956,0.174934369 57.3333287,0.262401553 57.7480924,0.380905481 C58.5804414,0.617913335 59.2209269,0.956495985 59.7852313,1.26404189 C60.064562,1.41922561 60.3580003,1.60544606 60.6401525,1.77755891 C60.9194832,1.9553148 61.1677772,2.15282135 61.4301787,2.3390418 C61.6784727,2.53372683 61.9041944,2.73969794 62.1412023,2.94002601 C62.361281,3.14881864 62.5672521,3.3604328 62.7788663,3.57204695 C64.3617402,5.30728303 65.2505196,7.25131174 65.8486823,9.20944807 C66.4242728,11.176049 66.6866744,13.1793296 66.765677,15.1882534 C66.8418581,17.1971771 66.7374618,19.2117438 66.4129867,21.2263106 C66.4045221,21.2855626 66.3283411,21.3307069 66.2408739,21.3307069 C66.1590497,21.3307069 66.0997978,21.2855626 66.1026193,21.2319536 Z" fill="#FFFFFF"></path>
                                            </g>
                                            <g transform="translate(70.820204, 128.661407)" id="Path">
                                                <path d="M44.661873,1.00446186 C44.2809675,8.61974995 42.4215845,19.5587911 35.4975693,30.097176 C33.7284749,32.7860866 31.8493412,35.1223068 29.9786721,37.1368736 C29.5046564,37.6503906 28.7964543,37.8789339 28.1108245,37.7519654 C21.0654838,36.4484222 17.1012453,36.8180416 14.7396313,37.4923854 C14.0652876,37.6842489 11.6331355,38.4375953 8.34041927,39.0103643 C6.4274273,39.3433039 5.46810979,39.5097737 4.43825423,39.5859548 C1.74370065,39.7806398 0.891600977,39.425128 0.459908099,40.0091831 C-0.0846456624,40.7456004 0.426049834,42.4610858 1.55183714,43.7900227 L47.2040644,37.3682384 C48.1887756,37.2299838 48.88287,36.3270968 48.7643661,35.339564 L44.661873,1.00446186 Z" fill="#FFB10F"></path>
                                                <path d="M4.72040644,41.278868 C5.750262,41.2026869 6.70957951,41.0362171 8.62257148,40.7032775 C11.9152877,40.1305085 14.3446183,39.3771621 15.0217836,39.1852986 C17.3833975,38.5137764 21.3476361,38.1413355 28.3929767,39.4448787 C29.0786066,39.5718472 29.7868086,39.3433039 30.2608243,38.8297869 C32.1286719,36.8123986 34.0106271,34.4789998 35.7797215,31.7900893 C43.5050489,20.0356283 44.9270961,7.77611485 45.0230278,0.194685024 C48.0646286,2.93156144 56.0862159,1.92145654 63.4334594,0.995997294 C64.5197454,0.860564234 65.9841154,0.648950078 67.3412675,0.316010473 C65.685034,12.1889754 60.9448769,31.3809686 45.8384477,47.4241431 C43.8041303,49.5826075 41.7303116,51.5294577 39.6593144,53.2844445 C38.0933696,54.6105599 36.0788028,55.2877252 34.0303778,55.2115441 C29.5808375,55.0478958 25.1284756,54.887069 20.6789353,54.7234207 C19.4628593,54.0885783 18.1028857,53.2675153 16.6949461,52.2038015 C14.446193,50.5052452 12.781495,48.7192218 11.5851697,47.223815 C10.7866789,47.3169253 9.64960551,47.412857 8.28398883,47.407214 C5.72768982,47.3987494 4.44954032,47.3931064 3.258858,46.6990119 C1.21043297,45.5083296 0.00282152208,42.7009152 0.744881829,41.6992748 C1.17657471,41.1180413 2.02585285,41.473553 4.72040644,41.278868 Z" fill="#F48E6B"></path>
                                                <path d="M11.5851697,47.223815 C12.9479648,46.7469778 14.3135815,46.2701406 15.6763767,45.7933034 C15.9726365,46.3886445 16.3761142,47.3761772 16.4946181,48.6571483 C16.6244081,50.034051 16.3704711,51.1457307 16.170143,51.7975023 C15.4986208,51.2642347 14.7960618,50.6547859 14.0765737,49.9606915 C13.0975055,49.0154816 12.273621,48.0872008 11.5851697,47.223815 Z" fill="#E88060"></path>
                                                <path d="M63.4362809,0.995997294 C64.5141024,0.860564234 65.9643647,0.6517716 67.3130523,0.321653517 C67.090152,1.7634513 66.8672518,3.20524908 66.6443515,4.64704687 C64.52821,5.10131192 61.1282759,5.54146936 57.0934993,4.7796584 C53.9023578,4.1786742 51.2755208,3.00492101 49.2327388,1.788845 C53.0812949,2.29954049 58.4139716,1.63083976 63.4362809,0.995997294 Z" fill="#E88060"></path>
                                            </g>
                                        </g>
                                    </g>
                                </g>
                            </g>
                        </g>
                    </g>
                </g>
            </g>
        </g>
    </g>
</svg>